<?xml version="1.0" encoding="utf-8"?>
<!-- Generator: Adobe Illustrator 27.3.1, SVG Export Plug-In . SVG Version: 6.00 Build 0)  -->
<svg version="1.1" id="Layer_1" xmlns="http://www.w3.org/2000/svg" xmlns:xlink="http://www.w3.org/1999/xlink" x="0px" y="0px"
	 viewBox="0 0 116 113" style="enable-background:new 0 0 116 113;" xml:space="preserve">
<style type="text/css">
	.st0{fill-rule:evenodd;clip-rule:evenodd;fill:#FFFFFF;}
	.st1{fill:#FFFFFF;}
</style>
<g>
	<path class="st0" d="M12.4,34.7h9.1v-3h-9.1C12.4,31.7,12.4,34.7,12.4,34.7z"/>
	<path class="st0" d="M12.4,42.4h9.1v-3h-9.1C12.4,39.4,12.4,42.4,12.4,42.4z"/>
	<path class="st0" d="M12.4,49.9h9.1V47h-9.1C12.4,47,12.4,49.9,12.4,49.9z"/>
	<path class="st0" d="M12.4,57.6h9.1v-3h-9.1C12.4,54.6,12.4,57.6,12.4,57.6z"/>
	<path class="st0" d="M12.4,72.8h9.1v-3.2h-9.1C12.4,69.6,12.4,72.8,12.4,72.8z"/>
	<path class="st0" d="M12.4,80.3h9.1v-3h-9.1C12.4,77.3,12.4,80.3,12.4,80.3z"/>
	<g>
		<path class="st0" d="M36.7,19.6v-9.1h-3.1v8.2c-0.1,0.3-0.1,0.6,0,0.9H36.7z"/>
		<path class="st0" d="M43.4,19.6c0.3,0.1,0.6,0.1,0.9,0v-9.1h-2.9v8.2c-0.1,0.3-0.1,0.6,0,0.9H43.4z"/>
		<path class="st0" d="M51.9,10.4h-3v9.1h3V10.4z"/>
		<path class="st0" d="M59.5,10.4h-3v8.2c0,0.3,0,0.6,0,0.9h3V10.4z"/>
		<path class="st0" d="M67.1,19.5v-9.1h-3v8.2c0,0.3,0,0.6,0,0.9h2.2C66.6,19.6,66.8,19.6,67.1,19.5z"/>
		<path class="st0" d="M71.5,10.4v9.1h3v-9.1C74.5,10.4,71.5,10.4,71.5,10.4z"/>
		<path class="st0" d="M79.3,10.4v9.1h3v-9.1C82.2,10.4,79.3,10.4,79.3,10.4z"/>
		<path class="st0" d="M93,26.2l-1.3-1.3c-1.3-1.2-2.6-2.6-3.8-3.8H28.2L23,26.3v59.5l5.1,5.1c0.2,0,0.5,0,0.7,0h58.9
			c1.7-1.7,3.5-3.5,5.2-5.2V31.6c0.1-0.4,0.1-0.8,0-1.2L93,26.2z M86.3,84.6c-0.7,0.5-2.2,0.3-3.4,0.3h-50c-1.3,0-3,0.2-3.5-0.6
			c-0.3-0.7-0.4-1.6-0.3-2.4V30.3c-0.1-0.7-0.1-1.4,0-2.2c0.1-0.2,0.2-0.4,0.4-0.5c0.2-0.2,0.4-0.2,0.6-0.3h0.4h51.6
			c1.2,0,3.5-0.2,4.2,0.3c0.7,0.5,0.6,2.1,0.6,3.3v50.5C86.8,82.7,87,84,86.3,84.6z"/>
		<path class="st0" d="M60.9,32.4L55,38.1l-1.7,1.7c-0.2,0.3-0.6,0.6-0.9,0.8c-0.7,0.1-1.4,0.1-2.2,0h-4.5c0,1.5,0,2.5-0.9,3
			c-0.8,0.1-1.7,0.1-2.5,0H39c-0.5,0.1-1.1,0.1-1.6,0c-0.2-0.1-0.4-0.2-0.5-0.5c-0.2-0.2-0.2-0.4-0.2-0.7v-6.6
			c0.1-0.2,0.2-0.4,0.3-0.6c0.2-0.2,0.3-0.3,0.6-0.4c0.7-0.1,1.2-0.1,1.9,0h3.7c0.7-0.1,1.4,0,2,0.3c0.7,0.5,0.6,1.6,0.6,2.7h5.5
			l7.6-7.6H32.1v18.3H39c1-0.2,2-0.2,3,0c0.4,0.2,0.5,0.7,0.8,1.1v5.5c-0.1,0.8-0.1,1.7,0,2.5H47c0.7,0.1,1.2,0.1,1.9,0
			c0-1.4,0-2.5,0.9-3c0.7-0.1,1.6-0.1,2.3,0h3.2c0.5-0.1,1.1-0.1,1.6,0c0.2,0.1,0.4,0.2,0.6,0.4s0.3,0.4,0.3,0.7V61
			c0.1,0.5,0.1,1.1,0,1.6c-0.2,0.3-0.4,0.7-0.7,0.8c-0.7,0.2-1.3,0.2-2,0h-3.7c-0.6,0.1-1.2,0.1-1.7,0c-0.6-0.2-0.6-0.6-0.9-1.2
			c0.1-0.6,0.1-1.2,0-1.8h-5.9c-0.9,0.2-1.8,0-2.7-0.3c-0.6-0.4-0.5-1.5-0.5-2.5v-6.2H32v30.4h30.6v-5.2c0.1-0.8,0.1-1.6,0-2.4h-9.1
			c0,1.1,0,2.2-0.5,2.7c-0.7,0.3-1.4,0.5-2.1,0.3h-3.7c-0.7,0.1-1.2,0.1-1.9,0c-0.2-0.1-0.4-0.2-0.5-0.4c-0.2-0.2-0.2-0.3-0.3-0.6
			c0-0.5,0-1,0-1.6v-5.4c0.1-0.2,0.2-0.5,0.3-0.7c0.2-0.2,0.3-0.3,0.6-0.5c0.5-0.1,1.1-0.1,1.6,0h5.5c1.2,0.3,1.1,1.5,1.1,3h8.6
			c1.2,0,2.7-0.2,3.2,0.5c0.4,1,0.6,2.1,0.4,3.1v7.1h16.1l-6.2-6.3l-1.4-1.4c-0.3-0.2-0.7-0.6-0.8-1c-0.1-0.7-0.1-1.4,0-2.1v-4.4
			c-1.2,0-2.2,0-2.7-0.6c-0.3-0.6-0.4-1.3-0.3-2v-3.7c-0.1-0.7-0.1-1.2,0-1.9c0.2-0.3,0.4-0.7,0.8-0.8c0.5-0.1,1.1-0.1,1.7,0h5.1
			c0.2,0.1,0.5,0.2,0.7,0.3s0.3,0.3,0.4,0.6c0.1,0.5,0.1,1.1,0,1.6V63c0.1,0.8,0.1,1.6,0,2.4c-0.4,1.1-1.5,1-3,1v5.5l7.6,7.6V37.8
			h-15v4.6c1.4,0,2.6,0,3,0.9c0.1,0.8,0.1,1.7,0,2.4v3.2c0.1,0.5,0.1,1.1,0,1.6c-0.1,0.2-0.2,0.4-0.4,0.6c-0.2,0.2-0.4,0.2-0.7,0.3
			h-2.2h-3.2c-0.5,0.1-1.1,0.1-1.6,0c-0.4-0.2-0.7-0.5-0.8-0.9c-0.1-0.7-0.1-1.2,0-1.9v-3.7c-0.1-0.7,0-1.4,0.3-2.1
			c0.4-0.6,1.6-0.5,2.7-0.5v-4.5c-0.1-0.7-0.1-1.4,0-2.2c0.2-0.6,0.6-0.6,1.2-0.9h15.4c0.6,0.1,1.1,0.1,1.7,0v-4.6H63.1L60.9,32.4z
			 M55,48.4h-3v-3h3V48.4z M39.7,74.2h-3v-3h3V74.2z M76.3,45.4h3v3h-3V45.4z M62.7,60.4h3v3h-3V60.4z"/>
		<path class="st0" d="M94.5,34.7h9.1v-3h-9.1V34.7z"/>
		<path class="st0" d="M42.8,40.9v-3h-3v3H42.8z"/>
		<path class="st0" d="M94.5,42.4h9.1v-3h-9.1V42.4z"/>
		<path class="st0" d="M65.6,48.4h3v-3h-3V48.4z"/>
		<path class="st0" d="M94.5,49.9h9.1V47h-9.1V49.9z"/>
		<path class="st0" d="M94.5,57.6h9.1v-3h-9.1V57.6z"/>
		<path class="st1" d="M53.4,61.2c1.2,0,2.2-1,2.2-2.2s-1-2.2-2.2-2.2c-1.2,0-2.2,1-2.2,2.2S52.2,61.2,53.4,61.2z"/>
		<path class="st0" d="M76.3,61.5c0.1-0.3,0.1-0.7,0-0.9h-2.1c-0.3-0.1-0.7-0.1-0.9,0v3h3V61.5z"/>
		<path class="st1" d="M17,65.8c3.6,0,6.5-1,6.5-2.2s-2.9-2.2-6.5-2.2s-6.5,1-6.5,2.2C10.5,64.8,13.4,65.8,17,65.8z"/>
		<path class="st1" d="M99,65.8c3.6,0,6.5-1,6.5-2.2s-2.9-2.2-6.5-2.2s-6.5,1-6.5,2.2S95.5,65.8,99,65.8z"/>
		<path class="st0" d="M94.5,72.8h9.1v-3.2h-9.1V72.8z"/>
		<path class="st0" d="M47.3,74.3h3v-3h-3V74.3z"/>
		<path class="st0" d="M94.5,79.4c-0.1,0.3-0.1,0.7,0,0.9h9.1v-3h-9.1V79.4z"/>
		<path class="st0" d="M33.7,92.5c0,3,0,6.1,0,9.1h3v-9.1h-2C34.2,92.5,33.9,92.5,33.7,92.5z"/>
		<path class="st0" d="M41.2,92.5v9.1h2.1c0.3,0.1,0.7,0.1,1,0v-8.3c0-0.3,0-0.6,0-0.9L41.2,92.5z"/>
		<path class="st1" d="M50.4,103.5c1.2,0,2.2-2.9,2.2-6.5c0-3.6-1-6.5-2.2-6.5c-1.2,0-2.2,2.9-2.2,6.5
			C48.2,100.6,49.2,103.5,50.4,103.5z"/>
		<path class="st0" d="M56.4,92.5v9.1h3v-9.1h-2.2C57,92.5,56.7,92.5,56.4,92.5z"/>
		<path class="st0" d="M64.1,92.5c0,3,0,6.1,0,9.1h3v-9.1H65C64.6,92.5,64.3,92.5,64.1,92.5z"/>
		<path class="st0" d="M71.5,101.6h3v-9.1h-3V101.6z"/>
		<path class="st1" d="M80.8,103.5c1.2,0,2.2-2.9,2.2-6.5c0-3.6-1-6.5-2.2-6.5c-1.2,0-2.2,2.9-2.2,6.5
			C78.6,100.6,79.6,103.5,80.8,103.5z"/>
	</g>
</g>
</svg>
