<?xml version="1.0" encoding="utf-8"?>
<!-- Generator: Adobe Illustrator 27.3.1, SVG Export Plug-In . SVG Version: 6.00 Build 0)  -->
<svg version="1.1" id="Layer_1" xmlns="http://www.w3.org/2000/svg" xmlns:xlink="http://www.w3.org/1999/xlink" x="0px" y="0px"
	 viewBox="0 0 700 700" style="enable-background:new 0 0 700 700;" xml:space="preserve">
<style type="text/css">
	.st0{fill-rule:evenodd;clip-rule:evenodd;fill:#FFFFFF;}
</style>
<g>
	<path class="st0" d="M193.8,554.2h-43.6c-4,0-7.2-3.2-7.2-7.2V193H12.2c-4,0-7.2-3.2-7.2-7.2v-42.4c0-4,3.2-7.2,7.2-7.2h181.6
		c4,0,7.2,3.2,7.2,7.2V547C201,550.9,197.8,554.1,193.8,554.2L193.8,554.2z M157.4,539.8h29.2V150.6H19.4v28h130.8
		c4,0,7.2,3.2,7.2,7.2L157.4,539.8z"/>
	<path class="st0" d="M663.6,523.3H193.8c-4,0-7.2-3.2-7.2-7.2s3.2-7.2,7.2-7.2h469.8c9.4,0,17-7.6,17-17V237.6c0-9.4-7.6-17-17-17
		H193.8c-4,0-7.2-3.2-7.2-7.2c0-4,3.2-7.2,7.2-7.2h469.8c17.3,0,31.4,14.1,31.4,31.4v254.3C695,509.2,680.9,523.3,663.6,523.3z"/>
	<path class="st0" d="M335.5,460.3c-52.7,0-95.6-42.9-95.6-95.6s42.9-95.6,95.6-95.6S431,312,431,364.7S388.2,460.3,335.5,460.3z
		 M335.5,283.5c-44.8,0-81.2,36.4-81.2,81.2s36.4,81.2,81.2,81.2s81.2-36.4,81.2-81.2C416.7,320,380.2,283.5,335.5,283.5z"/>
	<path class="st0" d="M335.5,345.7c-3.3,0-6.2-2.3-7-5.6c-4.6-20-5.5-41.8-2.8-64.6c0.5-3.9,4.1-6.7,8-6.3c3.9,0.5,6.7,4.1,6.3,8
		c-2.6,21.1-1.7,41.2,2.5,59.6c0.9,3.9-1.5,7.7-5.4,8.6C336.5,345.6,336,345.7,335.5,345.7L335.5,345.7z"/>
	<path class="st0" d="M354,353.4c-1.3,0-2.6-0.4-3.8-1.1c-3.4-2.1-4.4-6.5-2.3-9.9c10.9-17.4,25.6-33.4,43.7-47.6
		c3.1-2.5,7.6-1.9,10.1,1.2c2.4,3.1,1.9,7.6-1.2,10.1c-16.8,13.1-30.4,27.9-40.4,43.9C358.8,352.2,356.4,353.4,354,353.4L354,353.4z
		"/>
	<path class="st0" d="M361.7,371.9c-3.3,0-6.2-2.2-7-5.6c-0.9-3.9,1.5-7.7,5.4-8.6c20-4.6,41.8-5.5,64.6-2.8c3.9,0.5,6.7,4.1,6.3,8
		c-0.5,3.9-4.1,6.8-8,6.3c-21.2-2.6-41.2-1.7-59.6,2.5C362.8,371.9,362.3,371.9,361.7,371.9L361.7,371.9z"/>
	<path class="st0" d="M399.8,432.5c-2.1,0-4.2-0.9-5.7-2.8c-13.1-16.8-27.9-30.4-43.9-40.4c-3.4-2.1-4.4-6.5-2.3-9.9
		c2.1-3.4,6.5-4.4,9.9-2.3c17.4,10.9,33.4,25.6,47.6,43.7c2.4,3.1,1.9,7.6-1.2,10.1C402.9,432,401.4,432.5,399.8,432.5L399.8,432.5z
		"/>
	<path class="st0" d="M338.1,460.3c-0.3,0-0.6,0-0.9-0.1c-3.9-0.5-6.7-4.1-6.3-8c2.6-21.1,1.7-41.2-2.5-59.6
		c-0.9-3.9,1.5-7.7,5.4-8.6c3.9-0.9,7.7,1.5,8.6,5.4c4.6,20,5.5,41.8,2.8,64.6C344.8,457.6,341.7,460.3,338.1,460.3L338.1,460.3z"/>
	<path class="st0" d="M274.9,436.3c-2.1,0-4.2-0.9-5.7-2.8c-2.4-3.1-1.9-7.6,1.2-10.1c16.8-13.1,30.4-27.9,40.4-43.9
		c2.1-3.4,6.5-4.4,9.9-2.3c3.4,2.1,4.4,6.5,2.3,9.9c-10.9,17.4-25.6,33.4-43.7,47.6C278,435.8,276.4,436.3,274.9,436.3L274.9,436.3z
		"/>
	<path class="st0" d="M271.4,376.1c-8.2,0-16.6-0.5-25.2-1.6c-3.9-0.5-6.7-4.1-6.3-8c0.5-3.9,4.1-6.7,8-6.3
		c21.1,2.6,41.2,1.7,59.6-2.5c3.9-0.9,7.7,1.5,8.6,5.4c0.9,3.9-1.5,7.7-5.4,8.6C298.3,374.7,285.1,376.1,271.4,376.1L271.4,376.1z"
		/>
	<path class="st0" d="M316.9,353.4c-1.3,0-2.6-0.4-3.8-1.1c-17.4-10.9-33.4-25.6-47.6-43.7c-2.4-3.1-1.9-7.6,1.2-10.1
		c3.1-2.4,7.6-1.9,10.1,1.2c13.1,16.8,27.9,30.4,43.9,40.4c3.4,2.1,4.4,6.5,2.3,9.9C321.6,352.2,319.3,353.4,316.9,353.4
		L316.9,353.4z"/>
	<path class="st0" d="M335.5,398.2c-18.4,0-33.5-15-33.5-33.5c0-18.4,15-33.5,33.5-33.5c18.4,0,33.5,15,33.5,33.5
		C368.9,383.2,353.9,398.2,335.5,398.2z M335.5,345.7c-10.5,0-19.1,8.6-19.1,19.1c0,10.5,8.6,19.1,19.1,19.1
		c10.5,0,19.1-8.6,19.1-19.1C354.5,354.2,346,345.7,335.5,345.7z"/>
	<path class="st0" d="M546.1,460.3c-52.7,0-95.6-42.9-95.6-95.6s42.9-95.6,95.6-95.6c52.7,0,95.6,42.9,95.6,95.6
		S598.9,460.3,546.1,460.3L546.1,460.3z M546.1,283.5c-44.8,0-81.2,36.4-81.2,81.2s36.4,81.2,81.2,81.2c44.8,0,81.2-36.4,81.2-81.2
		C627.3,320,590.9,283.5,546.1,283.5L546.1,283.5z"/>
	<path class="st0" d="M546.1,345.7c-3.3,0-6.2-2.3-7-5.6c-4.6-20-5.5-41.8-2.8-64.6c0.5-3.9,4.1-6.8,8-6.3c3.9,0.5,6.7,4.1,6.3,8
		c-2.6,21.1-1.7,41.2,2.5,59.6c0.9,3.9-1.5,7.7-5.4,8.6C547.2,345.6,546.7,345.7,546.1,345.7L546.1,345.7z"/>
	<path class="st0" d="M564.7,353.4c-1.3,0-2.6-0.4-3.8-1.1c-3.4-2.1-4.4-6.5-2.3-9.9c10.9-17.4,25.6-33.4,43.7-47.6
		c3.1-2.5,7.6-1.9,10.1,1.2c2.4,3.1,1.9,7.6-1.2,10.1c-16.8,13.1-30.4,27.9-40.4,43.9C569.5,352.2,567.1,353.4,564.7,353.4
		L564.7,353.4z"/>
	<path class="st0" d="M572.4,371.9c-3.3,0-6.2-2.2-7-5.6c-0.9-3.9,1.5-7.7,5.4-8.6c20-4.6,41.8-5.5,64.6-2.8c3.9,0.5,6.7,4.1,6.3,8
		c-0.5,3.9-4.1,6.8-8,6.3c-21.2-2.6-41.2-1.7-59.6,2.5C573.5,371.9,572.9,371.9,572.4,371.9L572.4,371.9z"/>
	<path class="st0" d="M610.5,432.5c-2.1,0-4.2-0.9-5.7-2.8c-13.1-16.8-27.9-30.4-43.9-40.4c-3.4-2.1-4.4-6.5-2.3-9.9
		c2.1-3.4,6.5-4.4,9.9-2.3c17.4,10.9,33.4,25.6,47.6,43.7c2.4,3.1,1.9,7.6-1.2,10.1C613.6,432,612,432.5,610.5,432.5L610.5,432.5z"
		/>
	<path class="st0" d="M548.8,460.3c-0.3,0-0.6,0-0.9-0.1c-3.9-0.5-6.7-4.1-6.3-8c2.6-21.1,1.7-41.2-2.5-59.6
		c-0.9-3.9,1.5-7.7,5.4-8.6c3.9-0.9,7.7,1.5,8.6,5.4c4.6,20,5.5,41.8,2.8,64.6C555.5,457.6,552.4,460.3,548.8,460.3L548.8,460.3z"/>
	<path class="st0" d="M485.5,436.3c-2.1,0-4.2-0.9-5.7-2.8c-2.4-3.1-1.9-7.6,1.2-10.1c16.8-13.1,30.4-27.9,40.4-43.9
		c2.1-3.4,6.5-4.4,9.9-2.3c3.4,2.1,4.4,6.5,2.3,9.9c-10.9,17.4-25.6,33.4-43.7,47.6C488.6,435.8,487.1,436.3,485.5,436.3
		L485.5,436.3z"/>
	<path class="st0" d="M482.1,376.1c-8.2,0-16.6-0.5-25.2-1.6c-3.9-0.5-6.7-4.1-6.3-8c0.5-3.9,4.1-6.8,8-6.3
		c21.1,2.6,41.2,1.7,59.6-2.5c3.9-0.9,7.7,1.5,8.6,5.4c0.9,3.9-1.5,7.7-5.4,8.6C509,374.7,495.8,376.1,482.1,376.1L482.1,376.1z"/>
	<path class="st0" d="M527.6,353.4c-1.3,0-2.6-0.4-3.8-1.1c-17.4-10.9-33.4-25.6-47.6-43.7c-2.4-3.1-1.9-7.6,1.2-10.1
		c3.1-2.5,7.6-1.9,10.1,1.2c13.1,16.8,27.9,30.4,43.9,40.4c3.4,2.1,4.4,6.5,2.3,9.9C532.3,352.2,530,353.4,527.6,353.4L527.6,353.4z
		"/>
	<path class="st0" d="M546.1,398.2c-18.4,0-33.5-15-33.5-33.5c0-18.4,15-33.5,33.5-33.5c18.4,0,33.5,15,33.5,33.5
		C579.6,383.2,564.6,398.2,546.1,398.2z M546.1,345.7c-10.5,0-19.1,8.6-19.1,19.1c0,10.5,8.6,19.1,19.1,19.1
		c10.5,0,19.1-8.6,19.1-19.1C565.2,354.2,556.7,345.7,546.1,345.7z"/>
	<path class="st0" d="M626.4,563.7H395.1c-4,0-7.2-3.2-7.2-7.2v-40.5c0-4,3.2-7.2,7.2-7.2s7.2,3.2,7.2,7.2v33.3h216.9v-33.3
		c0-4,3.2-7.2,7.2-7.2s7.2,3.2,7.2,7.2v40.5C633.6,560.5,630.3,563.7,626.4,563.7z"/>
	<path class="st0" d="M347.3,563.7h-92c-4,0-7.2-3.2-7.2-7.2v-40.5c0-4,3.2-7.2,7.2-7.2c4,0,7.2,3.2,7.2,7.2v33.3h77.6v-33.3
		c0-4,3.2-7.2,7.2-7.2c4,0,7.2,3.2,7.2,7.2v40.5C354.5,560.5,351.2,563.7,347.3,563.7z"/>
	<path class="st0" d="M277.2,563.7c-4,0-7.2-3.2-7.2-7.2v-16.5c0-4,3.2-7.2,7.2-7.2c4,0,7.2,3.2,7.2,7.2v16.5
		C284.4,560.5,281.2,563.7,277.2,563.7z"/>
	<path class="st0" d="M301.3,563.7c-4,0-7.2-3.2-7.2-7.2v-16.5c0-4,3.2-7.2,7.2-7.2s7.2,3.2,7.2,7.2v16.5
		C308.5,560.5,305.2,563.7,301.3,563.7z"/>
	<path class="st0" d="M325.3,563.7c-4,0-7.2-3.2-7.2-7.2v-16.5c0-4,3.2-7.2,7.2-7.2s7.2,3.2,7.2,7.2v16.5
		C332.5,560.5,329.3,563.7,325.3,563.7z"/>
	<path class="st0" d="M150.2,341.2h-32c-4,0-7.2-3.2-7.2-7.2v-94.4c0-4,3.2-7.2,7.2-7.2h32c4,0,7.2,3.2,7.2,7.2c0,4-3.2,7.2-7.2,7.2
		h-24.8v80.1h24.8c4,0,7.2,3.2,7.2,7.2S154.2,341.2,150.2,341.2L150.2,341.2z"/>
	<path class="st0" d="M150.2,499.8h-32c-4,0-7.2-3.2-7.2-7.2v-94.4c0-4,3.2-7.2,7.2-7.2h32c4,0,7.2,3.2,7.2,7.2s-3.2,7.2-7.2,7.2
		h-24.8v80.1h24.8c4,0,7.2,3.2,7.2,7.2S154.2,499.8,150.2,499.8L150.2,499.8z"/>
	<path class="st0" d="M419.8,563.7c-4,0-7.2-3.2-7.2-7.2v-16.5c0-4,3.2-7.2,7.2-7.2s7.2,3.2,7.2,7.2v16.5
		C427,560.5,423.8,563.7,419.8,563.7z"/>
	<path class="st0" d="M440,563.7c-4,0-7.2-3.2-7.2-7.2v-16.5c0-4,3.2-7.2,7.2-7.2s7.2,3.2,7.2,7.2v16.5
		C447.2,560.5,444,563.7,440,563.7z"/>
	<path class="st0" d="M460.2,563.7c-4,0-7.2-3.2-7.2-7.2v-16.5c0-4,3.2-7.2,7.2-7.2s7.2,3.2,7.2,7.2v16.5
		C467.4,560.5,464.2,563.7,460.2,563.7z"/>
	<path class="st0" d="M480.4,563.7c-4,0-7.2-3.2-7.2-7.2v-16.5c0-4,3.2-7.2,7.2-7.2c4,0,7.2,3.2,7.2,7.2v16.5
		C487.6,560.5,484.4,563.7,480.4,563.7z"/>
	<path class="st0" d="M500.6,563.7c-4,0-7.2-3.2-7.2-7.2v-16.5c0-4,3.2-7.2,7.2-7.2s7.2,3.2,7.2,7.2v16.5
		C507.8,560.5,504.6,563.7,500.6,563.7z"/>
	<path class="st0" d="M520.8,563.7c-4,0-7.2-3.2-7.2-7.2v-16.5c0-4,3.2-7.2,7.2-7.2c4,0,7.2,3.2,7.2,7.2v16.5
		C528,560.5,524.8,563.7,520.8,563.7z"/>
	<path class="st0" d="M541,563.7c-4,0-7.2-3.2-7.2-7.2v-16.5c0-4,3.2-7.2,7.2-7.2s7.2,3.2,7.2,7.2v16.5
		C548.2,560.5,545,563.7,541,563.7z"/>
	<path class="st0" d="M561.2,563.7c-4,0-7.2-3.2-7.2-7.2v-16.5c0-4,3.2-7.2,7.2-7.2s7.2,3.2,7.2,7.2v16.5
		C568.4,560.5,565.2,563.7,561.2,563.7z"/>
	<path class="st0" d="M581.4,563.7c-4,0-7.2-3.2-7.2-7.2v-16.5c0-4,3.2-7.2,7.2-7.2c4,0,7.2,3.2,7.2,7.2v16.5
		C588.6,560.5,585.4,563.7,581.4,563.7z"/>
	<path class="st0" d="M601.6,563.7c-4,0-7.2-3.2-7.2-7.2v-16.5c0-4,3.2-7.2,7.2-7.2s7.2,3.2,7.2,7.2v16.5
		C608.8,560.5,605.6,563.7,601.6,563.7z"/>
</g>
</svg>
