<?xml version="1.0" encoding="utf-8"?>
<!-- Generator: Adobe Illustrator 27.3.1, SVG Export Plug-In . SVG Version: 6.00 Build 0)  -->
<svg version="1.1" id="Layer_1" xmlns="http://www.w3.org/2000/svg" xmlns:xlink="http://www.w3.org/1999/xlink" x="0px" y="0px"
	 viewBox="0 0 700 700" style="enable-background:new 0 0 700 700;" xml:space="preserve">
<style type="text/css">
	.st0{fill:#ED1C24;}
</style>
<g>
	<path class="st0" d="M609.3,429.5h-16.8V236.3c0-3.4-2.8-6.7-6.7-6.7H210v-9c0-1.7-0.6-3.4-1.7-4.5c-1.1-1.1-2.8-1.7-4.5-1.1
		l-90.7,15.7c-2.8,0.6-4.5,2.8-4.5,5.6v193.2H90.7c-3.4,0-6.7,2.8-6.7,6.7c0,2.8,2.8,6.2,6.7,6.2h28.6l84.6,14.6h1.1
		c1.1,0,2.8-0.6,3.4-1.1c1.1-1.1,1.7-2.8,1.7-4.5v-9h399.8c3.4,0,6.7-2.8,6.7-6.7C616,432.3,613.2,429.5,609.3,429.5L609.3,429.5z
		 M180.3,345c-5,0-9-3.9-9-9s3.9-9,9-9c5,0,9,3.9,9,9S185.4,345,180.3,345z M236.3,429.5H210v-187h26.3V429.5z M579.6,429.5h-83.4
		v-19h22.4c12.9,0,23.5-9,25.8-21.8l9.5-52.1c0.6-3.4-1.7-6.7-5-7.3c-3.4-0.6-6.7,1.7-7.8,5l-9.5,52.1c-1.1,6.2-6.7,10.6-12.9,10.6
		h-26.9c-4.5,0-8.4,3.9-8.4,8.4V429H476v-36.4c0-1.7,1.7-3.4,3.4-3.4h30.2c3.9,0,7.8-1.7,10.6-5c2.8-3.4,3.4-7.3,2.8-11.2l-7.8-36.4
		c-0.6-3.9-2.8-6.7-6.2-9c-3.4-2.2-6.7-2.8-10.6-1.7c0,0-10.1,2.2-12.9,2.8c-2.2,0.6-20.2,10.1-20.2,10.1l-16.2-0.6
		c-4.5,0-9,3.4-9,8.4s3.4,9,8.4,9l17.9,0.6h0.6c1.1,0,2.8,0,3.9-1.1l11.8-5.6l4.5,20.2h-16.8c-7.8,0-14,6.2-14,14V429h-35.3v-53.2
		h23c3.4,0,6.7-2.8,6.7-6.7c0-3.4-2.8-6.7-6.7-6.7h-59.4c-3.4,0-6.7,2.8-6.7,6.7c0,3.4,2.8,6.7,6.7,6.7h23V429h-35.3v-45.4
		c0-7.8-6.2-14-14-14h-16.8l4.5-20.2l11.8,5.6c1.1,0.6,2.2,1.1,3.9,1.1h0.6l18.5-0.6c5,0,8.4-4.5,8.4-9c0-5-4.5-8.4-9-8.4l-16.2,0.6
		c0,0-17.9-9.5-20.2-10.1c-2.8-0.6-12.9-2.8-12.9-2.8c-3.4-0.6-7.3,0-10.6,1.7c-3.4,2.2-5,5-6.2,9l-7.8,36.4
		c-1.1,3.9,0,7.8,2.8,11.2c2.8,3.4,6.7,5,10.6,5H350c1.7,0,3.4,1.7,3.4,3.4V429h-7.3v-23.5c0-4.5-3.9-8.4-8.4-8.4h-26.9
		c-6.2,0-11.8-4.5-12.9-10.6l-9.5-52.1c-0.6-3.4-3.9-6.2-7.8-5c-3.4,0.6-6.2,3.9-5,7.3l9.5,52.1c2.2,12.3,12.9,21.8,25.8,21.8h22.4
		v19h-84v-187h330.4L579.6,429.5z"/>
	<path class="st0" d="M340.5,285c-10.1-1.1-19.6,6.2-20.7,16.8c-1.1,10.1,6.2,19.6,16.8,20.7c10.1,1.1,19.6-6.2,20.7-16.8
		C358.4,295.1,350.6,286.2,340.5,285L340.5,285z"/>
	<path class="st0" d="M488.3,285c-10.1,1.1-17.9,10.6-16.8,20.7s10.6,17.9,20.7,16.8s17.9-10.6,16.8-20.7
		C507.9,291.2,498.4,283.9,488.3,285L488.3,285z"/>
</g>
</svg>
