<?xml version="1.0" encoding="utf-8"?>
<!-- Generator: Adobe Illustrator 27.3.1, SVG Export Plug-In . SVG Version: 6.00 Build 0)  -->
<svg version="1.1" id="Layer_1" xmlns="http://www.w3.org/2000/svg" xmlns:xlink="http://www.w3.org/1999/xlink" x="0px" y="0px"
	 viewBox="0 0 100 172" style="enable-background:new 0 0 100 172;" xml:space="preserve">
<style type="text/css">
	.st0{fill:#FFFFFF;}
</style>
<path class="st0" d="M46.9,147.6c-3.3,0-6,2.7-6,6c0,3.3,2.7,6,6,6s6-2.7,6-6C52.9,150.3,50.2,147.6,46.9,147.6z"/>
<path class="st0" d="M18.3,131.4l58.3-26.3c0.3-3.4,0.5-6.8,0.7-10.1l-60.6,27.3C16.9,124.2,17.4,127.4,18.3,131.4L18.3,131.4z"/>
<path class="st0" d="M100,93.6l0-0.7l-0.3-0.6c-0.1-0.1-6.2-10.1-7.1-17.9l-0.1-0.6l-9.4-13.4l0-20.6l-30-17.4v10.3h-2.9l0-32.7
	h-4.9v32.7h-2.5v-9.6l-29.5,15v5.6l-9.1,6.1v21.6l7.4,7.8v7.7L0,103.1v33.2l27.7,29.8l0.5,0.4c0.3,0.2,8.4,5.2,19.5,5.2h0
	c6.6,0,12.8-1.7,18.6-5.2l0.3-0.2l17.8-19.2l0.3-0.4C85.4,145.6,100.7,119.8,100,93.6L100,93.6z M62.6,51.4h7.5v4.9h-2.6v15h-4.9
	L62.6,51.4z M28.3,42.7h4.9v37.5h-4.9V42.7z M28.3,84.1h4.9v10.4h-4.9V84.1z M13.2,53.9h4.9v11.4h-4.9V53.9z M46.9,164.5
	c-6,0-11-4.9-11-11c0-6,4.9-11,11-11c6,0,11,4.9,11,11C57.8,159.6,52.9,164.5,46.9,164.5z M78.7,132.2c-1,6.5-2.1,12.6-3.6,17.8
	l-9.8,10.5c4.7-5.8,7.7-21.1,9.7-38.3l-52.6,23.4c1.8,4.9,4,10.1,6.9,15l-11.1-11.9c-5.4-14.3-6.7-26.9-6.7-27.6l0,0
	c0-0.1,0-0.2,0-0.2V95.3l4.9-7V117l21.4-9.6V42.7h4.9V95l10.4-5.1V42.7H58V93l-15.3,7.5v4.7l34.8-15.7c0.5-10.8,0.7-20.5,0.7-27.3
	l4.7,6.8c-0.2,10.8-0.7,31-2.7,50.2c7.7-16.6,9.1-33.5,9.3-36.5c1.2,3.4,2.8,6.6,4,8.9C92,101.6,88.1,117.9,78.7,132.2L78.7,132.2z"
	/>
<path class="st0" d="M20.8,140.9l54.8-24.4c0.2-1.9,0.4-3.9,0.5-5.8l-56.7,25.6C19.9,137.8,20.3,139.3,20.8,140.9L20.8,140.9z"/>
</svg>
