<?xml version="1.0" encoding="utf-8"?>
<!-- Generator: Adobe Illustrator 27.3.1, SVG Export Plug-In . SVG Version: 6.00 Build 0)  -->
<svg version="1.1" id="Layer_1" xmlns="http://www.w3.org/2000/svg" xmlns:xlink="http://www.w3.org/1999/xlink" x="0px" y="0px"
	 viewBox="0 0 700 700" style="enable-background:new 0 0 700 700;" xml:space="preserve">
<style type="text/css">
	.st0{fill:#FFFFFF;}
</style>
<path class="st0" d="M620,341v-17.6c0.4-62.6-20.6-123.5-59.6-172.3l-0.1-0.1l0,0c-25.3-31.5-57.4-56.8-93.8-74.1
	C430,59.5,390.1,50.8,349.7,51c-40.3-0.3-80.1,8.6-116.4,25.9s-68.3,42.6-93.6,74c-0.1,0-0.1,0.1-0.1,0.2l0,0
	c-39,49-60,109.7-59.6,172.2v17.6c-8.3,0.4-16.2,4.2-21.8,10.3s-8.6,14.5-8.3,22.9v103.8c-0.3,8.3,2.5,16.5,8.2,22.7
	S71.7,510.5,80,511h21.8c2.1,5.8,5.9,10.9,11,14.4c5,3.6,11,5.6,17.2,5.6h50c7.9,0,15.6-3.2,21.2-8.8c5.7-5.7,8.8-13.2,8.8-21.2V351
	c0-7.9-3.2-15.6-8.8-21.2c-5.7-5.7-13.2-8.8-21.2-8.8h-39.9c0.3-43.6,13.7-86,38.7-121.6c5.8,2.3,12.3,2.7,18.3,1.2
	s11.6-4.8,15.7-9.5c34.8-39.2,84.7-61.6,137-61.6s102.3,22.4,137,61.6c4.2,4.7,9.7,8,15.7,9.5c6.1,1.5,12.5,1,18.3-1.2
	c25,35.6,38.4,78.2,38.7,121.6h-39.9c-7.9,0-15.6,3.2-21.2,8.8c-5.7,5.7-8.8,13.2-8.8,21.2v150c0,7.9,3.2,15.6,8.8,21.2
	c5.7,5.7,13.2,8.8,21.2,8.8h40v40c0,2.6-1,5.2-3,7c-1.9,1.9-4.4,3-7,3h-57.6c-8.3-12.4-22.3-20-37.4-20h-40c-16.1,0-31,8.6-39,22.5
	c-8,13.9-8,31,0,45c8,13.9,22.9,22.5,39,22.5h40c10.2,0,20-3.6,27.9-10H570c13.2,0,26-5.3,35.4-14.6c9.4-9.4,14.6-22.1,14.6-35.4
	v-80c8.3-0.4,16.2-4.2,21.8-10.3c5.7-6.2,8.5-14.3,8.2-22.7V374.1c0.3-8.3-2.5-16.5-8.2-22.7C636.1,345.2,628.3,341.4,620,341
	L620,341z M100,491H80c-6.3-1-10.6-6.8-10-13.1V374.1c-0.6-6.3,3.7-12.1,10-13.1h20V491z M120,322.8c-8.4,3-15.1,9.7-18.2,18.2H100
	v-17.6c-0.3-54.3,16.8-107.1,48.7-150.9l14.4,14.5l0,0C135.1,226.7,120,274.1,120,322.8L120,322.8z M536.9,186.9l14.4-14.5l0,0
	c31.9,43.8,49,96.8,48.7,150.9v17.6h-1.8c-3-8.4-9.7-15.1-18.2-18.2C580,274.1,564.9,226.7,536.9,186.9L536.9,186.9z M600,591
	c0,7.9-3.2,15.6-8.8,21.2c-5.7,5.7-13.2,8.8-21.2,8.8h-72.8c2.5-6.3,3.3-13.2,2.3-20H550c7.9,0,15.6-3.2,21.2-8.8
	c5.7-5.7,8.8-13.2,8.8-21.2v-41.8c8.4-3,15.1-9.7,18.2-18.2h1.8V591z M630,477.9c0.6,6.3-3.7,12.1-10,13.1h-20V361h20
	c6.3,1,10.6,6.8,10,13.1V477.9z"/>
</svg>
