<?xml version="1.0" encoding="utf-8"?>
<!-- Generator: Adobe Illustrator 27.3.1, SVG Export Plug-In . SVG Version: 6.00 Build 0)  -->
<svg version="1.1" id="Layer_1" xmlns="http://www.w3.org/2000/svg" xmlns:xlink="http://www.w3.org/1999/xlink" x="0px" y="0px"
	 viewBox="0 0 700 700" style="enable-background:new 0 0 700 700;" xml:space="preserve">
<style type="text/css">
	.st0{fill:#FFFFFF;}
</style>
<g>
	<path class="st0" d="M180.4,152.4v2.4c-0.8,0-1.5,0-2.4-0.8h-1.5c-0.8,0-2.4,0-3.1-0.8h-1.5c-1.5,0-3.9-0.8-5.4-0.8s-3.1,0-4.7-0.8
		c-6.2-0.8-11.6-0.8-17.1-0.8h-3.1h-16.4h-3.1h-3.1c-0.8,0-1.5,0-3.1,0.8c-0.8,0-1.5,0-3.1,0.8c-0.8,0-2.4,0.8-3.1,0.8h-0.8h-0.8
		c-0.8,0-2.4,0.8-3.1,0.8c-2.4,0.8-3.9,1.5-6.2,2.4c-0.8,0-0.8,0-1.5,0.8v-1.5l8.6-7.8c3.9-3.1,7.8-5.4,12.5-6.2h4.7H156
		c4.7,0,10.1,1.5,14,4.7L180.4,152.4z"/>
	<path class="st0" d="M593.4,147.7c-3.9-3.1-7.8-5.4-12.5-6.2h-4.7h-32.6c-4.7,0-10.1,1.5-14,4.7l-9.3,6.2v2.4
		c1.5,0,3.9-0.8,6.2-0.8h0.8h1.5c28.7-3.1,47.4-3.1,60.6,0c4.7,0.8,9.3,2.4,12.5,3.9v-1.5L593.4,147.7z"/>
	<path class="st0" d="M124.5,271.9l-14,16.4c-0.8,0.8-1.5,0.8-2.4,0.8H83.3c-4.7,0-8.6-3.9-8.6-8.6v-21.8c0-4.7,3.9-8.6,8.6-8.6H109
		c0.8,0,1.5,0,2.4,0.8l14,16.4C125.2,268.9,125.2,270.4,124.5,271.9L124.5,271.9z"/>
	<path class="st0" d="M125.2,268l-13.9-16.4c-0.8-0.8-1.5-0.8-2.4-0.8H83.3c-4.7,0-8.6,3.9-8.6,8.6v21.8c0,4.7,3.9,8.6,8.6,8.6H109
		c0.8,0,1.5-0.8,2.4-1.5l14-16.4C126,270.4,126,268.9,125.2,268L125.2,268z M109,288.3H83.3c-4.7,0-7.8-3.9-7.8-7.8v-21.8
		c0-4.7,3.9-7.8,7.8-7.8H109c0.8,0,1.5,0,1.5,0.8l14,16.4c0.8,0.8,0.8,2.4,0,3.1l-14,16.4C110.5,288.3,109.7,288.3,109,288.3
		L109,288.3z"/>
	<path class="st0" d="M151.7,220.6v25.7c0,0.8,0,1.5-0.8,2.4l-16.4,14c-0.8,0.8-2.4,0.8-3.9,0l-16.2-14.8c-0.8-0.8-0.8-1.5-0.8-2.4
		v-25.7c0-4.7,3.9-8.6,8.6-8.6h21.8C147.8,212.2,151.7,216,151.7,220.6L151.7,220.6z"/>
	<path class="st0" d="M143.1,212.2h-20.9c-4.7,0-8.6,3.9-8.6,8.6v25.7c0,0.8,0.8,1.5,1.5,2.4l16.4,14c0.8,0.8,1.5,0.8,2.4,0.8
		s1.5,0,2.4-0.8l16.4-14c0.8-0.8,0.8-1.5,0.8-2.4v-25.7C152.4,216,148.5,212.2,143.1,212.2L143.1,212.2z M151.7,246.3
		c0,0.8,0,1.5-0.8,1.5l-16.4,14c-0.8,0.8-2.4,0.8-3.1,0l-17.1-14c-0.8-0.8-0.8-1.5-0.8-1.5v-25.7c0-4.7,3.9-7.8,7.8-7.8h21.8
		c4.7,0,7.8,3.9,7.8,7.8v25.7H151.7z"/>
	<path class="st0" d="M151.7,293.7v25.7c0,4.7-3.9,8.6-8.6,8.6h-20.9c-4.7,0-8.6-3.9-8.6-8.6v-25.7c0-0.8,0.8-1.5,0.8-2.4l16.4-14
		c0.8-0.8,2.4-0.8,3.9,0l16.4,14C151.7,292.2,151.7,292.9,151.7,293.7L151.7,293.7z"/>
	<path class="st0" d="M150.9,291.3l-16.4-14c-1.5-0.8-3.1-0.8-3.9,0l-16.2,14c-0.8,0.8-1.5,1.5-1.5,2.4v25.7c0,4.7,3.9,8.6,8.6,8.6
		h21.8c4.7,0,8.6-3.9,8.6-8.6v-25.7C152.4,292.9,151.7,291.3,150.9,291.3L150.9,291.3z M151.7,318.5c0,4.7-3.9,7.8-7.8,7.8h-21.8
		c-4.7,0-7.8-3.9-7.8-7.8v-25.7c0-0.8,0-1.5,0.8-1.5l16.4-14c0.8,0,0.8-0.8,1.5-0.8c0.8,0,0.8,0,1.5,0.8l16.4,14
		c0.8,0.8,0.8,1.5,0.8,1.5L151.7,318.5z"/>
	<path class="st0" d="M190.5,258.7v21.8c0,4.7-3.9,8.6-8.6,8.6h-25.7c-0.8,0-1.5-0.8-2.4-0.8l-14-16.4c-0.8-0.8-0.8-2.4,0-3.9
		l14-16.4c0.8-0.8,1.5-0.8,2.4-0.8h25.7C186.6,251,190.5,254,190.5,258.7L190.5,258.7z"/>
	<path class="st0" d="M181.9,250.2h-25.7c-0.8,0-1.5,0.8-2.4,0.8l-14,17.1c-0.8,1.5-0.8,3.1,0,3.9l14,16.4c0.8,0.8,1.5,1.5,2.4,1.5
		h25.7c4.7,0,8.6-3.9,8.6-8.6v-21.8C190.5,254,186.6,250.2,181.9,250.2L181.9,250.2z M189.7,280.5c0,4.7-3.9,7.8-7.8,7.8h-25.7
		c-0.8,0-1.5,0-1.5-0.8l-14-16.4c-0.8-0.8-0.8-2.4,0-3.1l14-16.4c0.8-0.8,1.5-0.8,1.5-0.8h25.7c4.7,0,7.8,3.9,7.8,7.8L189.7,280.5
		L189.7,280.5z"/>
	<path class="st0" d="M238.6,188c-3.1-0.8-6.2-3.9-6.2-7.8V171v-1.5v-0.8v-0.8h-37.3c-5.4,0-3.9-3.9-15.5-7.8
		c-0.8,0-2.4-0.8-3.1-0.8H175c-0.8,0-2.4-0.8-3.1-0.8h-1.5c-1.5,0-3.9-0.8-5.4-0.8s-3.1-0.8-4.7-0.8c-6.2-0.8-11.6-1.5-17.1-1.5
		h-3.1h-16.4h-3.1h-3.1c-0.8,0-1.5,0-3.1,0.8c-0.8,0-1.5,0-3.1,0.8c-0.8,0-2.4,0.8-3.1,0.8h-1.1h-0.8c-0.8,0-2.4,0.8-3.1,0.8
		c-2.4,0.8-3.9,1.5-6.2,3.1c-0.8,0-0.8,0.8-1.5,0.8c-10.1,6.2-17.1,15.5-24.8,26.3c-19.4,25.7-28.7,76.8-38,108.7
		c-38.8,128.9-45.1,281,34.9,281S157.2,476,179.7,431.8c2.4-4.7,6.9-10.8,14.7-14c-14-11.6-22.5-29.5-22.5-48.9
		c0-10.1,2.4-20.2,6.9-28.7c-13.2,9.3-29.5,14.7-47.4,14.7c-44.2,0-81.5-35.8-82.4-80.7c-1.5-48.1,37.3-86.9,85.4-85.4
		c41.9,2.4,79.2,38.8,80.7,80.7c0.8,17.1-3.9,32.6-11.6,45.8c10.1-6.2,22.5-9.3,34.9-8.6c32.6,1.5,59.8,28.7,61.3,61.3
		c0.8,20.9-8.6,39.7-23.3,52c24.1,0.8,47.4,0.8,69.9,0.8h3.1h3.1c21.8,0,43.5,0,66.8-0.8c-14-11.6-23.3-29.5-23.3-49.6
		c0-34.9,28.7-63.6,63.6-63.6c14,0,27.2,4.7,38,12.5c-8.6-13.2-14-29.5-14-46.6c0.8-43.5,37.3-80.7,80.7-82.4
		c48.1-1.5,86.9,38,85.4,86.2c-1.5,43.5-37.3,79.2-80.7,80c-20.9,0.8-39.7-6.2-55.2-18.6c5.4,9.3,9.3,20.9,9.3,32.6
		c0,19.4-8.6,36.5-21.8,48.1c8.6,3.1,14,9.3,17.1,14.7c23,44.5,33.1,146.3,113.1,146.3s73.8-152.2,34.9-281
		c-9.3-31.9-19.4-83.1-38-108.7c-8.6-10.8-14.7-20.2-24.8-26.3c-3.9-2.4-7.8-3.9-13.2-5.4c-13.2-3.9-31.9-3.9-60.6,0h-1.5h-0.8
		c-2.4,0.8-4.7,0.8-6.9,1.5c-11.6,3.1-10.1,7.8-15.5,7.8h-43.5v0.8v0.8v1.5v9.3c0,3.9-1.5,6.9-4.7,7.8c5.4,2.4,8.6,7.8,8.6,14.7
		v76.1c0,9.3-6.9,16.4-16.4,16.4H248c-9.3,0-16.4-6.9-16.4-16.4v-76.1C230.9,195.1,233.2,189.6,238.6,188L238.6,188z M209.1,221.5
		c-6.9,0-12.5-9.3-12.5-20.9c0-11.6,5.4-20.9,12.5-20.9c6.9,0,12.5,9.3,12.5,20.9C222.3,212.2,216.2,221.5,209.1,221.5z
		 M348.2,387.6c-10.1,0-17.9-7.8-17.9-17.9c0-9.3,7.8-17.9,17.9-17.9s17.9,7.8,17.9,17.9C365.9,379.8,358.1,387.6,348.2,387.6z
		 M490.1,221.5c-6.9,0-12.5-9.3-12.5-20.9c0-11.6,5.4-20.9,12.5-20.9c6.9,0,12.5,9.3,12.5,20.9C503.4,212.2,497.9,221.5,490.1,221.5
		z"/>
	<path class="st0" d="M591.1,323.2c0,12.5-10.1,22.5-21.8,22.5c-12.5,0-21.8-10.1-21.8-22.5c0-12.5,10.1-22.5,21.8-22.5
		C581.1,300.6,591.1,310.7,591.1,323.2z"/>
	<path class="st0" d="M642.4,271.9c0,12.5-10.1,22.5-21.8,22.5c-12.5,0-21.8-10.1-21.8-22.5c0-12.5,10.1-22.5,21.8-22.5
		S642.4,259.4,642.4,271.9z"/>
	<path class="st0" d="M591.1,220.6c0,12.5-10.1,22.5-21.8,22.5c-12.5,0-21.8-10.1-21.8-22.5c0-12.5,10.1-22.5,21.8-22.5
		C581.1,198.2,591.1,208.3,591.1,220.6z"/>
	<path class="st0" d="M539.9,271.9c0,12.5-10.1,22.5-21.8,22.5c-12.5,0-21.8-10.1-21.8-22.5c0-12.5,10.1-22.5,21.8-22.5
		S539.9,259.4,539.9,271.9z"/>
	<path class="st0" d="M236.3,317.7c-27.2,0-49.6,21.8-49.6,49.6c0,27.2,21.8,49.6,49.6,49.6c27.2,0,49.6-21.8,49.6-49.6
		C286,340.3,264.3,317.7,236.3,317.7L236.3,317.7z M236.3,405.4c-21.8,0-38.8-17.9-38.8-38.8s17.9-38.8,38.8-38.8
		c21.8,0,38.8,17.9,38.8,38.8S258,405.4,236.3,405.4z"/>
	<path class="st0" d="M460.7,317.7c-27.2,0-49.6,21.8-49.6,49.6c0,27.2,21.8,49.6,49.6,49.6c27.2,0,49.6-21.8,49.6-49.6
		C509.5,340.3,487.9,317.7,460.7,317.7L460.7,317.7z M460.7,405.4c-21.8,0-38.8-17.9-38.8-38.8s17.9-38.8,38.8-38.8
		c21.8,0,38.8,17.9,38.8,38.8S481.7,405.4,460.7,405.4z"/>
	<path class="st0" d="M124.5,271.9l-14,16.4c-0.8,0.8-1.5,0.8-2.4,0.8H83.3c-4.7,0-8.6-3.9-8.6-8.6v-21.8c0-4.7,3.9-8.6,8.6-8.6H109
		c0.8,0,1.5,0,2.4,0.8l14,16.4C125.2,268.9,125.2,270.4,124.5,271.9L124.5,271.9z"/>
	<path class="st0" d="M125.2,268l-13.9-16.4c-0.8-0.8-1.5-0.8-2.4-0.8H83.3c-4.7,0-8.6,3.9-8.6,8.6v21.8c0,4.7,3.9,8.6,8.6,8.6H109
		c0.8,0,1.5-0.8,2.4-1.5l14-16.4C126,270.4,126,268.9,125.2,268L125.2,268z M109,288.3H83.3c-4.7,0-7.8-3.9-7.8-7.8v-21.8
		c0-4.7,3.9-7.8,7.8-7.8H109c0.8,0,1.5,0,1.5,0.8l14,16.4c0.8,0.8,0.8,2.4,0,3.1l-14,16.4C110.5,288.3,109.7,288.3,109,288.3
		L109,288.3z"/>
	<path class="st0" d="M151.7,220.6v25.7c0,0.8,0,1.5-0.8,2.4l-16.4,14c-0.8,0.8-2.4,0.8-3.9,0l-16.2-14.8c-0.8-0.8-0.8-1.5-0.8-2.4
		v-25.7c0-4.7,3.9-8.6,8.6-8.6h21.8C147.8,212.2,151.7,216,151.7,220.6L151.7,220.6z"/>
	<path class="st0" d="M143.1,212.2h-20.9c-4.7,0-8.6,3.9-8.6,8.6v25.7c0,0.8,0.8,1.5,1.5,2.4l16.4,14c0.8,0.8,1.5,0.8,2.4,0.8
		s1.5,0,2.4-0.8l16.4-14c0.8-0.8,0.8-1.5,0.8-2.4v-25.7C152.4,216,148.5,212.2,143.1,212.2L143.1,212.2z M151.7,246.3
		c0,0.8,0,1.5-0.8,1.5l-16.4,14c-0.8,0.8-2.4,0.8-3.1,0l-17.1-14c-0.8-0.8-0.8-1.5-0.8-1.5v-25.7c0-4.7,3.9-7.8,7.8-7.8h21.8
		c4.7,0,7.8,3.9,7.8,7.8v25.7H151.7z"/>
	<path class="st0" d="M151.7,293.7v25.7c0,4.7-3.9,8.6-8.6,8.6h-20.9c-4.7,0-8.6-3.9-8.6-8.6v-25.7c0-0.8,0.8-1.5,0.8-2.4l16.4-14
		c0.8-0.8,2.4-0.8,3.9,0l16.4,14C151.7,292.2,151.7,292.9,151.7,293.7L151.7,293.7z"/>
	<path class="st0" d="M150.9,291.3l-16.4-14c-1.5-0.8-3.1-0.8-3.9,0l-16.2,14c-0.8,0.8-1.5,1.5-1.5,2.4v25.7c0,4.7,3.9,8.6,8.6,8.6
		h21.8c4.7,0,8.6-3.9,8.6-8.6v-25.7C152.4,292.9,151.7,291.3,150.9,291.3L150.9,291.3z M151.7,318.5c0,4.7-3.9,7.8-7.8,7.8h-21.8
		c-4.7,0-7.8-3.9-7.8-7.8v-25.7c0-0.8,0-1.5,0.8-1.5l16.4-14c0.8,0,0.8-0.8,1.5-0.8c0.8,0,0.8,0,1.5,0.8l16.4,14
		c0.8,0.8,0.8,1.5,0.8,1.5L151.7,318.5z"/>
	<path class="st0" d="M190.5,258.7v21.8c0,4.7-3.9,8.6-8.6,8.6h-25.7c-0.8,0-1.5-0.8-2.4-0.8l-14-16.4c-0.8-0.8-0.8-2.4,0-3.9
		l14-16.4c0.8-0.8,1.5-0.8,2.4-0.8h25.7C186.6,251,190.5,254,190.5,258.7L190.5,258.7z"/>
	<path class="st0" d="M181.9,250.2h-25.7c-0.8,0-1.5,0.8-2.4,0.8l-14,17.1c-0.8,1.5-0.8,3.1,0,3.9l14,16.4c0.8,0.8,1.5,1.5,2.4,1.5
		h25.7c4.7,0,8.6-3.9,8.6-8.6v-21.8C190.5,254,186.6,250.2,181.9,250.2L181.9,250.2z M189.7,280.5c0,4.7-3.9,7.8-7.8,7.8h-25.7
		c-0.8,0-1.5,0-1.5-0.8l-14-16.4c-0.8-0.8-0.8-2.4,0-3.1l14-16.4c0.8-0.8,1.5-0.8,1.5-0.8h25.7c4.7,0,7.8,3.9,7.8,7.8L189.7,280.5
		L189.7,280.5z"/>
	<path class="st0" d="M151.7,220.6v25.7c0,0.8,0,1.5-0.8,2.4l-16.4,14c-0.8,0.8-2.4,0.8-3.9,0l-16.2-14.8c-0.8-0.8-0.8-1.5-0.8-2.4
		v-25.7c0-4.7,3.9-8.6,8.6-8.6h21.8C147.8,212.2,151.7,216,151.7,220.6L151.7,220.6z"/>
	<path class="st0" d="M151.7,293.7v25.7c0,4.7-3.9,8.6-8.6,8.6h-20.9c-4.7,0-8.6-3.9-8.6-8.6v-25.7c0-0.8,0.8-1.5,0.8-2.4l16.4-14
		c0.8-0.8,2.4-0.8,3.9,0l16.4,14C151.7,292.2,151.7,292.9,151.7,293.7L151.7,293.7z"/>
	<path class="st0" d="M190.5,258.7v21.8c0,4.7-3.9,8.6-8.6,8.6h-25.7c-0.8,0-1.5-0.8-2.4-0.8l-14-16.4c-0.8-0.8-0.8-2.4,0-3.9
		l14-16.4c0.8-0.8,1.5-0.8,2.4-0.8h25.7C186.6,251,190.5,254,190.5,258.7L190.5,258.7z"/>
	<path class="st0" d="M124.5,271.9l-14,16.4c-0.8,0.8-1.5,0.8-2.4,0.8H83.3c-4.7,0-8.6-3.9-8.6-8.6v-21.8c0-4.7,3.9-8.6,8.6-8.6H109
		c0.8,0,1.5,0,2.4,0.8l14,16.4C125.2,268.9,125.2,270.4,124.5,271.9L124.5,271.9z"/>
	<path class="st0" d="M448.3,186.5H244h-1.5c-3.1-0.8-5.4-3.9-5.4-6.9V171v-1.5v-0.8c0-0.8,0-0.8,0.8-1.5c0.8-1.5,2.4-2.4,3.1-3.1
		h208.8c1.5,0.8,2.4,1.5,3.1,3.1c0,0,0.8,0.8,0.8,1.5v0.8v1.5v8.6C453.7,182.6,451.3,185.7,448.3,186.5L448.3,186.5L448.3,186.5z"/>
</g>
</svg>
