<?xml version="1.0" encoding="utf-8"?>
<!-- Generator: Adobe Illustrator 27.3.1, SVG Export Plug-In . SVG Version: 6.00 Build 0)  -->
<svg version="1.1" id="Layer_1" xmlns="http://www.w3.org/2000/svg" xmlns:xlink="http://www.w3.org/1999/xlink" x="0px" y="0px"
	 viewBox="0 0 700 700" style="enable-background:new 0 0 700 700;" xml:space="preserve">
<style type="text/css">
	.st0{fill:#FFFFFF;}
</style>
<g>
	<path class="st0" d="M493.6,304.1H465l-2.2-16.6h24.9L493.6,304.1z"/>
	<path class="st0" d="M525.3,316.2V418c0,0.9-0.4,1.8-1,2.5c-0.6,0.6-1.6,1-2.5,1h-17.4c-0.9,0-1.8-0.4-2.5-1c-0.6-0.6-1-1.6-1-2.5
		V316.2H525.3z"/>
	<path class="st0" d="M529.3,307.2v11.2h-33.3v-12.1L529.3,307.2z"/>
	<path class="st0" d="M517.4,310.9h-8.1c-5.8,0-11.3-2.3-15.5-6.4c-4-4.2-6.4-9.6-6.4-15.5v-13.8c0-3,1.2-6,3.4-8.1
		c2.1-2.1,5.1-3.4,8.1-3.4h28.6c3,0,6,1.2,8.1,3.4c2.1,2.1,3.4,5.1,3.4,8.1V289c0,5.8-2.3,11.3-6.4,15.5c-4,4.2-9.6,6.4-15.5,6.4
		H517.4z"/>
	<path class="st0" d="M204.8,304.1h25.9l2.3-16.6h-22.3L204.8,304.1z"/>
	<path class="st0" d="M408.8,53.1c-7-14.8-19.4-26.5-34.6-32.5s-32.2-6-47.4,0.1s-27.5,17.8-34.4,32.7l-0.4,1l0,0
		c19,3.5,38.3,5.2,57.7,5.2c20,0,40-1.8,59.6-5.6L408.8,53.1z M456.5,113.9l-1.6-0.5c-0.9,13.1,3.9,26,13,35.5
		c10,10.9,15.2,25.5,14.6,40.3c9-8.3,14.3-19.7,14.6-32C497.5,138.3,482.6,121.1,456.5,113.9L456.5,113.9z M476.1,195.4
		c-0.8-0.6-1.2-1.7-1-2.7c1.6-14.2-3-28.5-12.6-39c-10.7-11.2-16-26.4-14.6-41.7c-0.1-0.4-0.1-0.6,0-1
		c-11.8-5.2-21.7-14.2-27.8-25.6c-0.8,11.4,0,23,2.1,34.3l0.5,3.1c14.6,20.8,31.7,69.2,8.7,174.6l0,0c-0.1,0.5-0.4,1-0.8,1.4
		c3.4,3.1,5.3,7.5,5.3,12.1v76c0,9.1-7.4,16.5-16.5,16.6H279.5c-4.4,0-8.6-1.7-11.7-4.8c-3.1-3.1-4.8-7.3-4.8-11.7v-76.1
		c0-4.8,2.1-9.5,5.8-12.6c-0.4-0.4-0.6-0.8-0.6-1.3c-22.3-103.2-5.8-151.6,7.9-172.7l0.8-4.4l0,0c2.1-10.9,2.7-22,2.1-33
		c-2.5,3.9-5.5,7.5-8.8,10.7c-5.5,5.1-11.7,9.1-18.6,11.8c0,0.3,0,0.5,0,0.8c1.4,15.3-3.9,30.5-14.6,41.7c-9.5,10.5-14,24.8-12.5,39
		c0.1,1.3-0.5,2.7-1.7,3.4c12.9,24.6,17.4,52.6,12.9,80l-2.7,14.6l0,0c-5.6,26.1-4.2,53.3,4.2,78.7l7.3,50.9l207.2,2.2l6.4-50.9l0,0
		c8.7-24.9,10.7-51.7,5.7-77.7l-2.6-15.8c-3.9-27.7,1.4-55.7,15.1-80L476.1,195.4z M421.5,134.8c-1.3,1-3,1.3-4.7,0.9
		c-44.4-9.4-90.3-9.4-134.7,0h-1.3c-0.9,0-1.9-0.3-2.7-0.8c-12,22.9-22.5,69.5-3,159.7l0,0c1.4-0.4,2.9-0.5,4.4-0.5h140.2
		c1.7,0,3.4,0.3,4.9,0.8C444.5,203,432.7,156.4,421.5,134.8L421.5,134.8z M340.8,154.4l-8.1,24.2c-1.3,3.9-3.6,7.1-6.9,9.6
		c-3.2,2.3-7.1,3.6-11.3,3.6h-27.9c-1.8,0-3.5-0.8-4.8-2.2c-1.2-1.4-1.7-3.2-1.4-5.1c1.6-10.4,6.4-20,13.8-27.4
		c9.1-9.2,21.6-14.6,34.7-14.6h3.5c2.9-0.1,5.6,1.3,7.3,3.6C341.5,148.7,341.9,151.7,340.8,154.4L340.8,154.4z M410.9,192h-26.4
		c-4,0-7.9-1.3-11.3-3.6c-3.2-2.3-5.7-5.7-6.9-9.6l-7.9-24.2c-0.9-2.6-0.4-5.6,1.2-7.8c1.7-2.2,4.3-3.6,7.1-3.6h2.1l0,0
		c11.7,0,23.1,4.2,32,11.8c8.8,7.7,14.7,18.3,16.5,29.9c0.3,1.8-0.4,3.6-1.6,5.1C414.5,191.2,412.7,192,410.9,192L410.9,192z
		 M244.6,111.3h-0.8c-26.9,6.5-42.2,23.9-42.2,43.3l0,0c0.5,12.6,6.2,24.4,15.6,32.9c-0.6-14.9,4.5-29.5,14.6-40.5
		C240.9,137.4,245.5,124.4,244.6,111.3L244.6,111.3z"/>
	<path class="st0" d="M419.6,410.9h-140c-6.4,0-12.5-2.5-16.9-7c-4.4-4.5-7-10.7-6.9-17v-76.1c0-6.4,2.5-12.3,7-16.9
		c4.4-4.4,10.5-7,16.9-7h140.2c6.4,0,12.3,2.6,16.9,7c4.4,4.4,7,10.5,7,16.9v76.1c0,6.4-2.5,12.5-6.9,16.9
		C432,408.4,425.9,410.9,419.6,410.9L419.6,410.9z M279.5,301.8c-5.2,0-9.4,4.2-9.4,9.4V387c0,2.5,1,4.8,2.7,6.6
		c1.7,1.8,4.2,2.7,6.6,2.7h140.2c5.1,0,9.2-4.2,9.2-9.4v-76.1c0-5.1-4.2-9.2-9.2-9.4L279.5,301.8z"/>
	<path class="st0" d="M360.7,527.8v-53.7h-22.3v53.4L360.7,527.8z"/>
	<path class="st0" d="M364.9,558.7v-31.6c0-2.9-1.6-5.3-4-6.6c-1-0.5-2.2-0.9-3.4-0.9h-16c-1,0-2.1,0.3-3,0.6
		c-2.7,1.2-4.5,3.9-4.5,6.9v31.4L364.9,558.7z"/>
	<path class="st0" d="M378.1,450.8v21.8c0.5,4-2.3,7.5-6.4,8.1h-44.4c-4-0.5-6.8-4.2-6.4-8.1v-21.8H378.1z"/>
	<path class="st0" d="M292,458.2h-20.4c-13.3,0-25.5-6.9-32.5-18.1l-40-65.5c-1-1.7-1.6-3.6-1.6-5.7c0-6,4.8-10.8,10.8-10.8
		c17.9,0,34.6,9,44.4,23.9l15.5,23.3L292,458.2z"/>
	<path class="st0" d="M430.6,405.2l15.1-22.9c9.9-14.9,26.5-23.9,44.4-23.9c2.9,0,5.6,1.2,7.7,3.1c2.1,2.1,3.1,4.8,3.1,7.7
		c0,1.9-0.5,4-1.6,5.7l-39.9,65.5c-6.9,11.3-19.2,18.2-32.5,18.1h-20.5L430.6,405.2z"/>
	<path class="st0" d="M436.1,447.3c0,6.1-4.9,11-11,11H273.9c-2.9,0-5.7-1.2-7.8-3.2s-3.2-4.8-3.2-7.8v-34c0-3.4,1.9-6.4,5.1-7.8
		c1-0.5,2.2-0.8,3.4-0.8h156.2c1,0,2.1,0.1,3,0.5c3.4,1.3,5.5,4.4,5.6,8.1V447.3z"/>
	<path class="st0" d="M411,128.5c-40.5-8.6-82.4-8.6-122.9,0c-1.8,0.4-3.6-0.1-4.9-1.4c-1.3-1.3-1.8-3.1-1.6-4.9l1.6-8.3l0,0
		c2.9-15.3,2.9-31.2,0-46.5l-1.6-8.3l0,0c-0.4-1.8,0.3-3.6,1.6-4.9c1.3-1.3,3.1-1.8,4.9-1.4c40.5,8.6,82.4,8.6,122.9,0
		c1.8-0.4,3.6,0.1,4.9,1.4c1.3,1.3,1.9,3.1,1.6,4.9l-1.6,8.3l0,0c-2.9,15.3-2.9,31.2,0,46.5l1.6,8.3l0,0c0.4,1.8-0.3,3.6-1.6,4.9
		C414.6,128.3,412.7,128.8,411,128.5z"/>
	<path class="st0" d="M492.1,658.6c-4,0-7.3-3.2-7.3-7.3c0-6.6-5.3-12-12-12c-6.6,0-12,5.3-12,12c0,4-3.2,7.3-7.3,7.3
		c-4,0-7.3-3.2-7.3-7.3c0-9.5,5.1-18.3,13.3-23c8.2-4.7,18.3-4.7,26.5,0c8.2,4.8,13.3,13.5,13.3,23c0,1.9-0.8,3.8-2.1,5.2
		C495.8,657.9,493.9,658.6,492.1,658.6L492.1,658.6z"/>
	<path class="st0" d="M241.1,658.6c-4,0-7.3-3.2-7.3-7.3c0-6.6-5.3-12-12-12s-12,5.3-12,12c0,4-3.2,7.3-7.3,7.3s-7.3-3.2-7.3-7.3
		c0-9.5,5.1-18.3,13.3-23c8.2-4.7,18.3-4.7,26.5,0c8.2,4.8,13.3,13.5,13.3,23c0,1.9-0.8,3.8-2.1,5.2
		C244.8,657.9,242.9,658.6,241.1,658.6L241.1,658.6z"/>
	<path class="st0" d="M343.2,632.1h12.6c3,0,5.3,3,5.3,5.3v27.8c0,3-2.5,5.3-5.3,5.3h-12.6c-3,0-5.3-3-5.3-5.3v-27.8
		C337.8,634.5,340.2,632.1,343.2,632.1L343.2,632.1z"/>
	<path class="st0" d="M338.5,635c-1.7-1-3-2.7-3.2-4.7l-4.8-37c-1.2-6.1-6.8-10.4-12.9-9.9c-35.3,2.5-61.7,9.7-76.1,23.6
		c-7.3,7.3-5.1,21.8-5.1,29.1h-1.7l-22.2-9c-0.5-7.3-3.8-13.6,0-20.1c17.1-32.7,70-48.1,136.8-48.1c68.3,0,122.2,16.4,138.2,50.4
		c2.9,6.2-1.4,12.7-1.6,19.5l-24.2-1.7c0-7.3,1.6-14-5.3-20.7c-14.6-13.8-40.3-20.9-75-23.4c-6.2-0.5-11.8,3.9-12.9,10l-4.7,36.9
		c-0.4,1.9-1.6,3.8-3.2,4.7L338.5,635z"/>
	<path class="st0" d="M197.5,317.1v100.6c0,0.9-0.4,1.8-1,2.5s-1.6,1-2.5,1h-17.4c-0.9,0-1.8-0.4-2.5-1s-1-1.6-1-2.5V317.1H197.5z"
		/>
	<path class="st0" d="M169.1,307.2v11.2h33.3v-12L169.1,307.2z"/>
	<path class="st0" d="M170.9,264.1h28.3l0,0c3,0,6,1.2,8.1,3.4c2.1,2.1,3.4,5.1,3.4,8.1v13.8c0,5.8-2.3,11.3-6.4,15.5
		c-4,4-9.6,6.4-15.5,6.4h-8.1c-5.8,0-11.3-2.3-15.5-6.4c-4-4.2-6.4-9.6-6.4-15.5v-13.8c0-3.1,1.3-6.1,3.5-8.3
		C164.8,265,167.8,264,170.9,264.1L170.9,264.1z"/>
	<path class="st0" d="M392,294.2h14.6v112H392V294.2z"/>
	<path class="st0" d="M294.2,294.2h14.6v112h-14.6V294.2z"/>
	<path class="st0" d="M491.7,656.4c0,10.4-8.4,19-19,19c-10.4,0-19-8.4-19-19c0-10.4,8.4-19,19-19
		C483.2,637.6,491.7,646,491.7,656.4"/>
	<path class="st0" d="M239.8,655.5c0,10.4-8.4,19-19,19s-19-8.4-19-19c0-10.4,8.4-19,19-19S239.8,645.1,239.8,655.5"/>
</g>
</svg>
