<?xml version="1.0" encoding="utf-8"?>
<!-- Generator: Adobe Illustrator 27.3.1, SVG Export Plug-In . SVG Version: 6.00 Build 0)  -->
<svg version="1.1" id="Layer_1" xmlns="http://www.w3.org/2000/svg" xmlns:xlink="http://www.w3.org/1999/xlink" x="0px" y="0px"
	 viewBox="0 0 700 700" style="enable-background:new 0 0 700 700;" xml:space="preserve">
<style type="text/css">
	.st0{fill:#ED1C24;}
</style>
<path class="st0" d="M350,96c-135.2,0-245,109.8-245,245s109.8,245,245,245c135.1,0,245-109.9,245-245S485.1,96,350,96z
	 M336.9,122.7v41.5c0,7.2,5.9,13.1,13.1,13.1s13.1-5.9,13.1-13.1v-41.5c108.4,6.4,195.4,91.4,204.8,199h-47.2l0,0
	c-7.2,0-13.1,5.9-13.1,13.1c0,3.5,1.4,6.8,3.8,9.3c2.5,2.5,5.8,3.9,9.3,3.9h47.9c-3.5,113.4-93,204.8-205.5,211.4v-53.8
	c0-7.2-5.9-13.1-13.1-13.1s-13.1,5.9-13.1,13.1v53.8c-112.5-6.6-201.9-98-205.5-211.4h47.9c3.5,0,6.8-1.4,9.3-3.9s3.8-5.8,3.8-9.3
	c0-7.2-5.9-13.1-13.1-13.1h-47.2C141.5,214.1,228.5,129.1,336.9,122.7L336.9,122.7z M350,197.3c-7.2,0-13.1,5.9-13.1,13.1v98.2
	c-12.8,5.2-21.9,17.8-21.9,32.4c0,19.2,15.8,35,35,35c7.4,0,14.3-2.4,20-6.4l66.5,43.1l0,0c6.1,3.9,14.2,2.2,18.1-3.9
	c4-6.1,2.2-14.2-3.8-18.2l-66.5-43.1c0.4-2.2,0.7-4.4,0.7-6.6c0-14.5-9.1-27.2-21.9-32.4v-98.2l0,0
	C363.1,203.2,357.2,197.3,350,197.3L350,197.3z"/>
</svg>
