<?xml version="1.0" encoding="utf-8"?>
<!-- Generator: Adobe Illustrator 27.3.1, SVG Export Plug-In . SVG Version: 6.00 Build 0)  -->
<svg version="1.1" id="Layer_1" xmlns="http://www.w3.org/2000/svg" xmlns:xlink="http://www.w3.org/1999/xlink" x="0px" y="0px"
	 viewBox="0 0 700 700" style="enable-background:new 0 0 700 700;" xml:space="preserve">
<style type="text/css">
	.st0{fill:#ED1C24;}
</style>
<g>
	<path class="st0" d="M337.2,425.4H105V162.9h420v187.5c0,4.8,3.9,8.8,8.8,8.8s8.8-3.9,8.8-8.8V154.2c0-4.8-3.9-8.8-8.8-8.8H96.3
		c-4.8,0-8.8,3.9-8.8,8.8v280c0,4.8,3.9,8.8,8.8,8.8h210v35h-52.5c-11.4,0-11.5,17.5,0,17.5h75.3c11.4,0,11.5-17.5,0-17.5h-5.3v-35
		h13.5C348.7,442.9,348.7,425.5,337.2,425.4L337.2,425.4z"/>
	<path class="st0" d="M612.1,519.9l-18.5-119.5c-2-13.2-11-23.3-22.6-25.1c-7.6-0.8-20.9-4.6-27.9-0.4l-35.7,14
		c0.3,1.6-47.8,0.3-49.2,0.7c-1.1,0-2.1-0.2-3.7-1l-34.2-13.4c-7.8-4.3-19.3-1.2-27.4-0.1c-12.9,1.8-22.3,13.8-24.1,26.7L350.5,520
		c-4.8,23.8,20.9,48,41.8,30.6l49.1-40.8c0.4-0.3,0.9-0.5,1.2-0.5h77.7c0.2,0,0.5,0,1.1,0.5l49.1,40.8
		C591.2,568.1,617,543.9,612.1,519.9L612.1,519.9z M591,536.6L591,536.6c-2.9,3-6.4,3.3-9.5,0.7l-49.1-40.9c-3.6-3-7.9-4.5-12.3-4.5
		h-77.7c-4.4,0-8.8,1.6-12.3,4.6L381,537.4c-8.4,6.5-15.1-7.1-13.2-14.8l18.3-118c1.1-5.7,3.3-10.7,9.4-12.1
		c3.7-0.2,14.6-3.4,18.1-1.1l34.2,13.4c6.4,4.4,47.5,1.6,56.6,2.4c3.7,0,7.3-0.8,10.1-2.2l35.6-14c1.1-0.5,2.1-0.7,3.3-0.5l15.1,2.2
		c3.7,0.6,7,4.9,7.8,10.4l18.5,119.5C595.6,527.9,594.1,533.3,591,536.6L591,536.6z"/>
	<path class="st0" d="M341.3,381.7H140v-175h350v148.8c0.1,11.4,17.3,11.5,17.5,0V197.9c0-4.8-3.9-8.8-8.8-8.8H131.3
		c-4.8,0-8.8,3.9-8.8,8.8v192.5c0,4.8,3.9,8.8,8.8,8.8h210C352.7,399.1,352.7,381.7,341.3,381.7z"/>
	<path class="st0" d="M560,438.5h-9.8v-13.1c0-4.8-3.9-8.8-8.8-8.8s-8.8,3.9-8.8,8.8v13.1h-9.8c-4.8,0-8.8,3.9-8.8,8.8
		s3.9,8.8,8.8,8.8h9.8v13.1c0,4.8,3.9,8.8,8.8,8.8s8.8-3.9,8.8-8.8V456h9.8C571.5,456,571.5,438.6,560,438.5z"/>
	<path class="st0" d="M437.5,438.5h-9.8v-13.1c0-4.8-3.9-8.8-8.8-8.8s-8.8,3.9-8.8,8.8v13.1h-9.8c-4.8,0-8.8,3.9-8.8,8.8
		s3.9,8.8,8.8,8.8h9.8v13.1c0,4.8,3.9,8.8,8.8,8.8s8.8-3.9,8.8-8.8V456h9.8C449,456,449,438.6,437.5,438.5z"/>
</g>
</svg>
