<?xml version="1.0" encoding="utf-8"?>
<!-- Generator: Adobe Illustrator 27.3.1, SVG Export Plug-In . SVG Version: 6.00 Build 0)  -->
<svg version="1.1" id="Layer_1" xmlns="http://www.w3.org/2000/svg" xmlns:xlink="http://www.w3.org/1999/xlink" x="0px" y="0px"
	 viewBox="0 0 700 700" style="enable-background:new 0 0 700 700;" xml:space="preserve">
<style type="text/css">
	.st0{fill:#FFFFFF;}
</style>
<g>
	<path class="st0" d="M129.1,559.4c-38.2,0-77.2-1-117-2.9l-5.3-0.2l10-25.1l2.7,0.2c177,11.8,358.9-6.4,555.9-56l5.9-1.5l-7,33
		l-2.3,0.6C441.2,541.9,292.6,559.4,129.1,559.4L129.1,559.4z M17.8,549.3c206.3,9.5,391.4-6.9,550.2-48.7l3.5-16.6
		C377,532.4,197.1,550.5,21.8,539L17.8,549.3L17.8,549.3z"/>
	<path class="st0" d="M124.3,542.3c-35.3,0-70.4-1.2-105.2-3.5l-5.1-0.4l131.4-331.9l2.2-0.3c170.8-21.7,341.7-80.5,522.7-179.6
		l7.2-3.9L579.7,482l-2.3,0.6c-159,40.1-308.3,59.8-453.1,59.8L124.3,542.3z M24.7,531.6c174.8,11.2,354.2-7.2,548.6-55.8L666.6,37
		c-178.3,96.8-347.2,154.5-515.9,176.3L24.7,531.6z"/>
	<path class="st0" d="M689,45.7L587.2,522.4l-16.1-18.8l5.3-24.7L672,29.8L689,45.7z"/>
	<path class="st0" d="M589.3,530.6l-22.3-26l5.7-26.6l96.9-455.5l23.5,21.8l-0.5,2.1L589.3,530.6L589.3,530.6z M575.2,502.6
		l9.9,11.5l99.7-467.2l-10.6-9.8L575.2,502.6L575.2,502.6z"/>
	<path class="st0" d="M587.2,522.4c-40.5,12-81.8,22-123.9,29.9c-3.9,0.8-7.8,1.4-11.7,2.2c-20.3,3.7-40.8,6.9-61.5,9.6
		c-116,15.3-237.5,16.1-364.4,2.9l-13.4-14.3c216.7,10.4,401.4-7.4,558.9-49.1L587.2,522.4L587.2,522.4z"/>
	<path class="st0" d="M199.9,580c-57,0-115.3-3.1-174.6-9.3l-1.4-0.2L3.1,548.5l9.3,0.5c209.4,10,397-6.5,557.8-49l2.3-0.6l21.4,25
		l-5.6,1.7c-40.4,11.9-82.1,22-124.3,30c-3.9,0.8-7.8,1.5-11.8,2.2c-20.2,3.6-41,6.9-61.6,9.6C329.1,576,265.3,580,199.9,580
		L199.9,580z M27.5,563.4c126.3,13,248.1,12,362.1-3.1c20.6-2.7,41.2-6,61.3-9.6c3.9-0.7,7.8-1.4,11.7-2.2c40-7.5,79.6-17,118-28.2
		l-10.7-12.5c-158.6,41.6-343,58.2-548.4,49L27.5,563.4L27.5,563.4z"/>
	<path class="st0" d="M522,659.8v4.5l-3.6,1.5l-22.3,9.3H209.6v-3.5c0,0,157.1-10,157.1-22.5h128.5
		C495.2,649.1,498.8,659.8,522,659.8L522,659.8z"/>
	<path class="st0" d="M496.9,678.8H205.8v-10.8l3.5-0.2c69.8-4.5,145.4-12.9,153.6-19.5v-2.9h134.9l0.9,2.6c0,0,3.6,8.1,23.2,8.1
		h3.8v10.7L496.9,678.8L496.9,678.8z M265.3,671.3h230.1l19.3-8c-13.7-1.5-19.5-6.9-21.7-10.3H368.7
		C363.5,657.6,343.4,664.6,265.3,671.3L265.3,671.3z"/>
	<path class="st0" d="M455.4,652.9H384l2.4-92.2l3.2-0.5c20.6-2.7,41.2-6,61.3-9.6l4.5-0.8L455.4,652.9z M391.7,645.4h56.1V559
		c-17.8,3.2-35.9,6-54,8.4L391.7,645.4L391.7,645.4z"/>
	<path class="st0" d="M464.9,649.1h-13.3v-94.7c3.9-0.7,7.8-1.4,11.7-2.2L464.9,649.1L464.9,649.1z"/>
	<path class="st0" d="M468.6,652.9h-20.8V551.3l3.1-0.5c3.9-0.7,7.8-1.4,11.7-2.2l4.4-0.8L468.6,652.9L468.6,652.9z M455.4,645.4
		h5.7l-1.4-88.5c-1.4,0.2-2.9,0.5-4.2,0.8L455.4,645.4L455.4,645.4z"/>
</g>
</svg>
