<?xml version="1.0" encoding="utf-8"?>
<!-- Generator: Adobe Illustrator 27.3.1, SVG Export Plug-In . SVG Version: 6.00 Build 0)  -->
<svg version="1.1" id="Layer_1" xmlns="http://www.w3.org/2000/svg" xmlns:xlink="http://www.w3.org/1999/xlink" x="0px" y="0px"
	 viewBox="0 0 700 700" style="enable-background:new 0 0 700 700;" xml:space="preserve">
<style type="text/css">
	.st0{fill:#ED1C24;}
</style>
<g>
	<path class="st0" d="M294,116.7c-14.9,0-29.1,5.9-39.6,16.4S238,157.8,238,172.7s5.9,29.1,16.4,39.6s24.7,16.4,39.6,16.4
		s29.1-5.9,39.6-16.4s16.4-24.7,16.4-39.6c0-14.8-5.9-29.1-16.4-39.6C323.1,122.6,308.8,116.7,294,116.7z M294,210
		c-9.9,0-19.4-3.9-26.4-10.9s-10.9-16.5-10.9-26.4s3.9-19.4,10.9-26.4s16.5-10.9,26.4-10.9s19.4,3.9,26.4,10.9s10.9,16.5,10.9,26.4
		s-3.9,19.4-10.9,26.4S303.9,210,294,210z"/>
	<path class="st0" d="M294,247.3c-14.9,0-29.1,5.9-39.6,16.4c-10.5,10.5-16.4,24.7-16.4,39.6s5.9,29.1,16.4,39.6
		s24.7,16.4,39.6,16.4s29.1-5.9,39.6-16.4s16.4-24.7,16.4-39.6c0-14.8-5.9-29.1-16.4-39.6C323.1,253.3,308.8,247.3,294,247.3
		L294,247.3z M294,340.7L294,340.7c-9.9,0-19.4-3.9-26.4-10.9s-10.9-16.5-10.9-26.4s3.9-19.4,10.9-26.4s16.5-10.9,26.4-10.9
		s19.4,3.9,26.4,10.9s10.9,16.5,10.9,26.4s-3.9,19.4-10.9,26.4C313.4,336.7,303.9,340.7,294,340.7L294,340.7z"/>
	<path class="st0" d="M294,378c-14.9,0-29.1,5.9-39.6,16.4S238,419.1,238,434s5.9,29.1,16.4,39.6S279.1,490,294,490
		s29.1-5.9,39.6-16.4S350,448.9,350,434c0-14.8-5.9-29.1-16.4-39.6S308.8,378,294,378z M294,471.3c-9.9,0-19.4-3.9-26.4-10.9
		s-10.9-16.5-10.9-26.4s3.9-19.4,10.9-26.4s16.5-10.9,26.4-10.9s19.4,3.9,26.4,10.9s10.9,16.5,10.9,26.4s-3.9,19.4-10.9,26.4
		S303.9,471.3,294,471.3z"/>
	<path class="st0" d="M602,116.7H387.3V98c0-7.4-2.9-14.5-8.2-19.8c-5.2-5.2-12.4-8.2-19.8-8.2H228.7c-6.6,0-12.9,2.4-17.9,6.7
		L88.7,147.2c-11.5,6.7-18.6,19-18.7,32.3v341c0,13.3,7.1,25.6,18.7,32.3l122.1,70.5l0,0c5,4.3,11.3,6.6,17.9,6.7h130.7
		c7.4,0,14.6-2.9,19.8-8.2c5.2-5.3,8.2-12.4,8.2-19.8v-37.3H518c4.9,0,9.7-2,13.2-5.5s5.5-8.2,5.5-13.2v-18.7c0-4.9-2-9.7-5.5-13.2
		s-8.2-5.5-13.2-5.5h-74.7V434H602c7.4,0,14.5-2.9,19.8-8.2c5.2-5.3,8.2-12.4,8.2-19.8V144.7c0-7.4-2.9-14.6-8.2-19.8
		C616.6,119.6,609.4,116.7,602,116.7L602,116.7z M387.3,172.7H574V378H387.3V172.7z M98,163.3L200.7,104v381.1l-18.7-8V172
		c0-6.5-3.4-12.5-8.9-15.9s-12.4-3.7-18.2-0.8L117.6,174c-3.1,1.6-5.7,3.9-7.5,6.9s-2.8,6.4-2.7,9.8v254.4l-18.7-8V179.4
		C88.7,172.8,92.2,166.7,98,163.3L98,163.3z M126,453.2v-45.5l37.3,6.2v55.3L126,453.2z M126,190.7l37.3-18.7v58.1l-37.3,6.2V190.7z
		 M163.3,312.7H126v-57.4l37.3-6.2V312.7z M126,331.3h37.3V395l-37.3-6.2V331.3z M88.7,520.5v-63l80.2,34.4l0.4,0.2l31.4,13.4V596
		L98,536.7C92.2,533.3,88.7,527.2,88.7,520.5L88.7,520.5z M368.7,602c0,2.5-1,4.8-2.7,6.6c-1.8,1.8-4.1,2.7-6.6,2.7H228.7
		c-5.2,0-9.3-4.2-9.3-9.3V98c0-5.2,4.2-9.3,9.3-9.3h130.7c2.5,0,4.9,1,6.6,2.7c1.8,1.8,2.7,4.1,2.7,6.6V602z M518,546H387.3v-18.7
		H518V546z M424.7,508.7h-37.3v-28h9.3c5.2,0,9.3-4.2,9.3-9.3c0-5.2-4.2-9.3-9.3-9.3h-9.3v-28h37.3V508.7z M611.3,406
		c0,2.5-1,4.8-2.7,6.6c-1.8,1.8-4.1,2.7-6.6,2.7H387.3v-18.7H574c4.9,0,9.7-2,13.2-5.5s5.5-8.2,5.5-13.2V172.7c0-5-2-9.7-5.5-13.2
		S579,154,574,154H387.3v-18.7H602c2.5,0,4.8,1,6.6,2.7c1.8,1.8,2.7,4.1,2.7,6.6V406z"/>
	<path class="st0" d="M167.5,519l-37.3-18.7c-4.6-2.3-10.2-0.4-12.5,4.2s-0.4,10.2,4.2,12.5l37.3,18.7c4.6,2.3,10.2,0.4,12.5-4.2
		C174,526.9,172.1,521.3,167.5,519L167.5,519z"/>
	<path class="st0" d="M294,284.7c-5.2,0-9.3,4.2-9.3,9.3v18.7c0,5.2,4.2,9.3,9.3,9.3s9.3-4.2,9.3-9.3V294c0-2.5-1-4.8-2.7-6.6
		C298.8,285.7,296.5,284.7,294,284.7L294,284.7z"/>
	<path class="st0" d="M294,415.3c-5.2,0-9.3,4.2-9.3,9.3v18.7l0,0c0,5.2,4.2,9.3,9.3,9.3s9.3-4.2,9.3-9.3v-18.7c0-2.5-1-4.9-2.7-6.6
		C298.8,416.3,296.5,415.3,294,415.3L294,415.3z"/>
	<path class="st0" d="M294,154c-5.2,0-9.3,4.2-9.3,9.3V182c0,5.2,4.2,9.3,9.3,9.3s9.3-4.2,9.3-9.3v-18.7c0-2.5-1-4.8-2.7-6.6
		C298.8,155,296.5,154,294,154L294,154z"/>
	<path class="st0" d="M322,518h-56c-5.2,0-9.3,4.2-9.3,9.3c0,5.2,4.2,9.3,9.3,9.3h56c5.2,0,9.3-4.2,9.3-9.3S327.2,518,322,518z"/>
	<path class="st0" d="M312.7,555.3h-37.3c-5.2,0-9.3,4.2-9.3,9.3c0,5.2,4.2,9.3,9.3,9.3h37.3c5.2,0,9.3-4.2,9.3-9.3
		S317.8,555.3,312.7,555.3z"/>
	<path class="st0" d="M533.9,194.1c-3.7-3.5-9.5-3.5-13.1,0.1s-3.6,9.4-0.1,13.1l18.7,18.7c3.7,3.5,9.5,3.5,13.1-0.1
		s3.7-9.4,0.1-13.1L533.9,194.1z"/>
	<path class="st0" d="M477.9,194.1c-3.7-3.5-9.5-3.5-13.1,0.1s-3.6,9.4-0.1,13.1l74.7,74.7c3.7,3.5,9.5,3.5,13.1-0.1
		s3.7-9.4,0.1-13.1L477.9,194.1z"/>
	<path class="st0" d="M421.9,194.1c-3.7-3.5-9.5-3.5-13.1,0.1s-3.6,9.4-0.1,13.1L539.4,338c3.7,3.5,9.5,3.5,13.1-0.1
		s3.7-9.4,0.1-13.1L421.9,194.1z"/>
</g>
</svg>
