<?xml version="1.0" encoding="utf-8"?>
<!-- Generator: Adobe Illustrator 27.3.1, SVG Export Plug-In . SVG Version: 6.00 Build 0)  -->
<svg version="1.1" id="Layer_1" xmlns="http://www.w3.org/2000/svg" xmlns:xlink="http://www.w3.org/1999/xlink" x="0px" y="0px"
	 viewBox="0 0 700 700" style="enable-background:new 0 0 700 700;" xml:space="preserve">
<style type="text/css">
	.st0{fill:#ED1C24;}
</style>
<g>
	<path class="st0" d="M167.4,430.2c25.2,0,45.9-20.7,45.9-45.9c0-25.2-20.7-45.9-45.9-45.9s-45.9,20.7-45.9,45.9
		S142.2,430.2,167.4,430.2z"/>
	<path class="st0" d="M203.3,447c-10.6,6.2-23,9.5-35.8,9.5s-25.2-3.4-35.8-9.5c-28,10.6-47.6,37.5-47.6,69.4v11.8
		c0,3.9,3.4,7.3,7.3,7.3h149v-19c0-10.1,1.7-20.2,4.5-29.7C236.9,468.3,221.8,453.7,203.3,447L203.3,447z"/>
	<path class="st0" d="M253.7,254.4c25.2,0,45.9-20.7,45.9-45.9s-20.7-45.9-45.9-45.9s-45.9,20.7-45.9,45.9
		C207.8,233.6,228.5,254.4,253.7,254.4z"/>
	<path class="st0" d="M486.6,384.3c0,25.2,20.7,45.9,45.9,45.9c25.2,0,45.9-20.7,45.9-45.9c0-25.2-20.7-45.9-45.9-45.9
		C507.4,338.9,486.6,359.1,486.6,384.3z"/>
	<path class="st0" d="M446.9,254.4c25.2,0,45.9-20.7,45.9-45.9s-20.7-45.9-45.9-45.9c-25.2,0-45.9,20.7-45.9,45.9
		C401,233.6,421.7,254.4,446.9,254.4z"/>
	<path class="st0" d="M277.8,384.3c0-33.6,23-61.6,54.3-69.4c-7.3-19.6-23-35.8-43.1-43.1c-10.6,6.2-23,9.5-35.8,9.5
		s-25.2-3.4-35.8-9.5c-19,7.3-34.2,22.4-42,41.4c35.8,3.9,63.8,34.7,63.8,71.7c0,16.2-5.6,31.4-14.6,43.7
		c13.4,7.3,25.2,17.9,34.2,30.2c9-12.3,20.7-23,34.2-30.2C283.4,415.6,277.8,400.5,277.8,384.3L277.8,384.3z"/>
	<path class="st0" d="M304.1,384.3c0,25.2,20.7,45.9,45.9,45.9c25.2,0,45.9-20.7,45.9-45.9c0-25.2-20.7-45.9-45.9-45.9
		C324.8,338.9,304.1,359.1,304.1,384.3z"/>
	<path class="st0" d="M568.4,447c-10.6,6.2-23,9.5-35.8,9.5s-25.2-3.4-35.8-9.5c-18.5,7.3-33.6,21.8-41.4,39.8
		c2.8,9.5,4.5,19,4.5,29.7v19h149c3.9,0,7.3-3.4,7.3-7.3v-11.8C616,484.5,596.4,457.6,568.4,447L568.4,447z"/>
	<path class="st0" d="M460.3,384.3c0-37,28-67.8,63.8-71.7c-7.8-19-23-34.2-42-41.4c-10.6,6.2-23,9.5-35.8,9.5s-25.2-3.4-35.8-9.5
		c-19.6,7.8-35.3,23.5-42.6,43.1c30.8,7.8,53.8,36.4,53.8,69.4c0,16.2-5.6,31.4-14.6,43.7c13.4,7.3,25.2,17.9,34.2,30.2
		c9-12.3,20.7-23,34.2-30.2C465.9,415.6,460.3,400.5,460.3,384.3L460.3,384.3z"/>
	<path class="st0" d="M385.8,447c-10.6,6.2-23,9.5-35.8,9.5s-25.2-3.4-35.8-9.5c-28,10.6-47.6,37.5-47.6,69.4v19h166.9v-19
		C433.4,484.5,413.8,457.6,385.8,447L385.8,447z"/>
</g>
</svg>
