<?xml version="1.0" encoding="utf-8"?>
<!-- Generator: Adobe Illustrator 27.3.1, SVG Export Plug-In . SVG Version: 6.00 Build 0)  -->
<svg version="1.1" id="Layer_1" xmlns="http://www.w3.org/2000/svg" xmlns:xlink="http://www.w3.org/1999/xlink" x="0px" y="0px"
	 viewBox="0 0 700 700" style="enable-background:new 0 0 700 700;" xml:space="preserve">
<style type="text/css">
	.st0{fill:#ED1C24;}
</style>
<path class="st0" d="M201.2,367c-3.5,0-6.7,2.1-8.1,5.4c-1.4,3.3-0.6,7,1.9,9.5s6.3,3.2,9.5,1.9c3.3-1.4,5.4-4.5,5.4-8.1
	c0-2.3-0.9-4.5-2.6-6.2S203.6,367,201.2,367z M253.8,384.5c-3.5,0-6.7,2.1-8.1,5.4c-1.4,3.3-0.6,7,1.9,9.5s6.3,3.2,9.5,1.9
	c3.3-1.4,5.4-4.5,5.4-8.1c0-2.3-0.9-4.5-2.6-6.2S256.1,384.5,253.8,384.5z M148.8,384.5c-3.5,0-6.7,2.1-8.1,5.4
	c-1.4,3.3-0.6,7,1.9,9.5s6.3,3.2,9.5,1.9c3.3-1.4,5.4-4.5,5.4-8.1c0-2.3-0.9-4.5-2.6-6.2S151.1,384.5,148.8,384.5z M201.2,402
	c-3.5,0-6.7,2.1-8.1,5.4c-1.4,3.3-0.6,7,1.9,9.5s6.3,3.2,9.5,1.9c3.3-1.4,5.4-4.5,5.4-8.1c0-2.3-0.9-4.5-2.6-6.2
	S203.6,402,201.2,402z M376.2,402c-3.5,0-6.7,2.1-8.1,5.4s-0.6,7,1.9,9.5s6.3,3.2,9.5,1.9c3.3-1.4,5.4-4.5,5.4-8.1
	c0-2.3-0.9-4.5-2.6-6.2S378.6,402,376.2,402z M577.5,227v-35H490v-80.9l46.9-46.7L525,52l-52.5,52.5V192H385v35h-52.5v52.5h18.4
	l5.6,53.9c-5-0.9-10.1-1.4-15.2-1.4H183.7c-25.5,0-50,10.2-68,28.2s-28.2,42.5-28.2,68v10.3c-6.9,2.4-12.5,7.5-15.4,14.2
	s-2.9,14.3,0,21s8.5,11.8,15.4,14.2v29.4c-6.9,2.3-12.6,7.4-15.5,14.1c-3,6.7-3,14.3,0,21s8.6,11.8,15.5,14.1
	c1.7,12.7,8,24.3,17.6,32.7c9.7,8.4,22.1,12.9,34.9,12.8h437.5l35-332.5H630V227H577.5z M402.5,209.5H560V227H402.5V209.5z
	 M105,428.2c0-20.9,8.4-40.9,23.1-55.6c14.8-14.8,34.8-23.1,55.6-23.1h157.5c20.9,0,40.9,8.4,55.6,23.1
	c14.8,14.8,23.1,34.8,23.1,55.6v8.8H105V428.2z M96.2,454.5h332.5c4.8,0,8.8,3.9,8.8,8.8s-3.9,8.8-8.8,8.8H96.2
	c-4.8,0-8.8-3.9-8.8-8.8S91.4,454.5,96.2,454.5z M105,515.8v-26.2h321.3v26.2H105z M211.2,533.2l-18.7,23.1l-18.7-23.1H211.2z
	 M233.8,533.2h195.1c4.8,0,8.8,3.9,8.8,8.8s-3.9,8.8-8.8,8.8H220L233.8,533.2z M96.1,550.8c-4.8,0-8.8-3.9-8.8-8.8s3.9-8.8,8.8-8.8
	h55.1l13.8,17.5L96.1,550.8L96.1,550.8z M385,594.5H140c-8,0.2-15.9-2.3-22.2-7.2c-6.4-4.9-10.9-11.8-12.8-19.6h74.2l13.3,16.3
	l13.3-16.3H419c-1.8,7.6-6.2,14.4-12.3,19.3S392.8,594.5,385,594.5L385,594.5z M561.4,594.5H423.3c4.7-5.1,8.3-11,10.7-17.5h128.8
	L561.4,594.5z M565.1,559.5H447.5c4.7-4.6,7.4-10.9,7.5-17.5c0-8.5-4.2-16.4-11.2-21.2v-36.2c1.9-1.2,3.5-2.8,4.9-4.6
	c13.6,8.6,30,11.6,45.8,8.2c15.7-3.4,29.5-12.9,38.3-26.3c8.8-13.5,12-29.9,8.8-45.7s-12.5-29.7-25.8-38.7
	c-13.4-9-29.7-12.4-45.5-9.4s-29.8,12.1-39,25.3c-10-25.6-30.4-45.7-56.2-55.3l-6.5-58.6H594L565.1,559.5z M437.5,438.6v-10.3
	c-0.1-13.4,6-26,16.3-34.4c10.4-8.4,24-11.7,37.1-8.8s24.1,11.4,30.1,23.4s6.2,26,0.6,38.1c-5.6,12.1-16.4,21.1-29.3,24.4
	c-13,3.3-26.7,0.5-37.4-7.6c0-5.4-1.7-10.7-4.9-15.1C447,443.7,442.6,440.4,437.5,438.6L437.5,438.6z M612.5,262H350v-17.5h262.5
	V262z M323.8,402c-3.5,0-6.7,2.1-8.1,5.4s-0.6,7,1.9,9.5s6.3,3.2,9.5,1.9c3.3-1.4,5.4-4.5,5.4-8.1c0-2.3-0.9-4.5-2.6-6.2
	S326.1,402,323.8,402z M341.3,367c-3.5,0-6.7,2.1-8.1,5.4s-0.6,7,1.9,9.5s6.3,3.2,9.5,1.9c3.3-1.4,5.4-4.5,5.4-8.1
	c0-2.3-0.9-4.5-2.6-6.2S343.6,367,341.3,367z"/>
</svg>
