<svg width="303" height="291" viewBox="0 0 303 291" fill="none" xmlns="http://www.w3.org/2000/svg">
<path d="M121.164 1.99976C148.48 60.2333 155.616 97.384 155.211 147.077C154.806 196.77 142.344 245.081 118.824 288.132" stroke="white" stroke-width="8"/>
<rect x="202" y="12" width="98" height="274" rx="13" stroke="white" stroke-width="6"/>
<circle cx="251.332" cy="69.0892" r="34.2205" stroke="white" stroke-width="6"/>
<circle cx="251.221" cy="157.214" r="34.2205" stroke="white" stroke-width="6"/>
<path fill-rule="evenodd" clip-rule="evenodd" d="M84.7741 174.418C85.6886 173.846 86.6603 173.446 87.632 172.874C88.6036 172.303 89.0609 171.988 89.8611 171.56V45.3861L89.3753 45.0718L88.1178 44.1001C87.0032 43.2427 85.8029 42.2711 84.6312 41.3851C84.024 41.0193 83.4585 40.588 82.9451 40.0991H30.5037C30.0518 40.4957 29.6401 40.9361 29.2749 41.4137L28.4747 42.1853C28.17 42.5905 27.8254 42.9639 27.4458 43.2999L26.9886 43.8143C26.5511 44.3993 26.0423 44.9273 25.4739 45.3861V54.9313C25.4302 55.2633 25.4302 55.5996 25.4739 55.9316H30.5037V60.3898H25.4168V89.7684L25.2453 89.9113C24.9024 90.34 24.4737 90.6829 24.1593 91.1402C23.845 91.5974 22.9876 92.3405 22.5018 92.9692C22.192 93.4308 21.8165 93.8448 21.3872 94.198V121.348L25.4168 125.834V154.413C25.3729 154.706 25.3729 155.005 25.4168 155.299H30.5037V159.757H25.4168V171.56C25.7797 171.882 26.172 172.169 26.5885 172.417L30.5037 175.446H82.9451L83.3452 175.189C83.8025 174.961 84.3169 174.703 84.7741 174.418ZM43.6784 59.4467V54.1025H47.9366V59.4467H43.6784ZM53.3379 59.4467V54.1025H57.6246V59.4467H53.3379ZM61.9114 59.4467V54.1025H66.2267V59.4467H61.9114ZM71.5995 59.4467V54.1025H75.8862V59.4467H71.5995ZM75.8862 118.547V123.92H71.6281V118.547H75.8862ZM66.2267 118.547V123.92H61.94V118.547H66.2267ZM57.6532 118.547V123.92H53.3665V118.547H57.6532ZM75.8862 111.031V116.403H71.6281V111.031H75.8862ZM66.2267 111.031V116.403H61.94V111.031H66.2267ZM57.6532 111.031V116.403H53.3665V111.031H57.6532ZM75.8862 103.515V108.83H71.6281V103.515H75.8862ZM66.2267 103.515V108.83H61.94V103.515H66.2267ZM57.6532 103.515V108.83H53.3665V103.515H57.6532ZM75.8862 93.8551V99.1707H71.6281V93.8551H75.8862ZM66.2267 93.8551V99.1707H61.94V93.8551H66.2267ZM57.6532 93.8551V99.1707H53.3665V93.8551H57.6532ZM75.8862 84.167V89.5112H71.6281V84.167H75.8862ZM66.2267 84.167V89.5112H61.94V84.167H66.2267ZM57.6532 84.167V89.5112H53.3665V84.167H57.6532ZM75.8862 74.3932V79.8231H71.6281V74.3932H75.8862ZM66.2267 74.3932V79.8231H61.94V74.3932H66.2267ZM57.6532 74.3932V79.8231H53.3665V74.3932H57.6532ZM75.8862 63.762V69.1062H71.6281V63.762H75.8862ZM66.2267 63.762V69.1062H61.94V63.762H66.2267ZM57.6532 63.762V69.1062H53.3665V63.762H57.6532ZM43.707 113.146V63.762H47.9366V113.146H43.707ZM43.707 124.977V115.346H47.9366V124.977H43.707ZM75.8862 157.271V162.643H71.6281V157.271H75.8862ZM75.8862 149.754V155.127H71.6281V149.697L75.8862 149.754ZM42.621 148.697V143.267H47.9366V148.697H42.621ZM61.94 148.697V143.267H66.2267V148.697H61.94ZM71.6281 148.697V143.267H75.8862V148.697H71.6281ZM66.2267 149.783V155.156H61.94V149.697L66.2267 149.783ZM42.621 157.271V151.869H47.9366V157.271H42.621ZM51.1945 157.271V151.869H55.567V157.271H51.1945ZM66.1982 157.271V162.643H61.9114V157.271H66.1982ZM42.5924 164.787V159.385H47.9366V164.73L42.5924 164.787Z" fill="white"/>
<path d="M56.6442 251.383L56.9116 251.377L57.141 251.237C57.1818 251.213 61.2587 248.757 64.4406 248.388L64.6896 248.359L70.1467 244.574L78.5088 244.609L85.6278 232.477L81.4577 232.459L81.4634 231.132L94.7461 231.189L94.7546 229.189L81.4723 229.132L81.4761 228.251L85.3839 228.268L79.356 216.246L77.0797 216.236L74.6235 212.517L65.8596 212.48L62.6882 215.487L59.5627 215.474L52.9902 210.777L39.5076 210.719L27.3603 221.922L27.1937 222.121C27.1077 222.257 25.0725 225.521 25.0532 230.029L25.0532 230.029C25.0419 232.691 25.7352 235.232 27.1135 237.582L27.1866 237.707L34.9525 244.98L35.1199 245.106C35.5607 245.373 46.0391 251.615 56.6447 251.383L56.6442 251.383ZM61.1093 247.168C59.9065 247.085 53.0407 246.492 46.307 243.339C54.1281 244.185 62.3281 244.451 66.6949 244.535L63.9563 246.435C63.0188 246.568 62.0427 246.84 61.1094 247.168L61.1093 247.168ZM56.1113 242.12C54.7634 242.04 53.3904 241.946 52.0109 241.841L41.4452 218.152C43.0812 217.794 44.3846 217.595 45.1328 217.496L56.1113 242.12ZM39.4673 218.628L49.7366 241.653C48.949 241.583 48.1647 241.507 47.3849 241.428L37.5822 219.163C38.2315 218.963 38.8617 218.785 39.4673 218.627L39.4673 218.628ZM82.1443 234.463L77.3661 242.605L69.8366 242.573C67.0899 242.569 62.957 242.477 58.3546 242.243L52.0622 228.126L54.3909 228.136L57.7449 234.358L82.1447 234.463L82.1443 234.463ZM79.457 232.452L58.94 232.364L56.6668 228.147L79.4751 228.245L79.457 232.452ZM66.6526 214.484L73.5437 214.513L74.6759 216.226L68.3048 216.199L68.2962 218.199L78.1176 218.241L82.1363 226.256L51.1695 226.124L47.2898 217.423L63.4811 217.492L66.6526 214.484ZM52.3441 212.775L56.1016 215.459L45.7507 215.416C45.7189 215.416 45.6882 215.424 45.6569 215.428L45.6564 215.42C45.3733 215.446 40.2686 215.932 34.4534 218.102L40.2844 212.724L52.344 212.775L52.3441 212.775ZM27.0528 230.04C27.0528 230.039 27.0528 230.039 27.0528 230.04C27.0678 226.538 28.5079 223.841 28.8228 223.294L29.5876 222.589C31.5797 221.421 33.6747 220.507 35.6749 219.795L45.0885 241.179C38.0992 240.359 31.9275 239.098 29.5682 237.199L28.7656 236.447C27.619 234.446 27.0428 232.292 27.0525 230.039L27.0528 230.04ZM36.2383 243.446L33.8216 241.183C35.928 241.772 38.3929 242.258 41.028 242.661C46.7954 246.539 53.44 248.124 57.4849 248.761C56.9742 249.028 56.5765 249.251 56.3404 249.388C46.894 249.493 37.2503 244.035 36.2385 243.446L36.2383 243.446Z" fill="white"/>
<path d="M77.4456 222.383L77.437 224.383L62.1929 224.318L62.2014 222.318L77.4456 222.383Z" fill="white"/>
<path d="M60.6558 222.311L60.6472 224.311L56.4241 224.293L56.4327 222.293L60.6558 222.311Z" fill="white"/>
<path d="M36.848 229.75C36.8585 227.298 34.8727 225.295 32.4212 225.285C29.9698 225.274 27.9663 227.26 27.9558 229.711C27.9454 232.163 29.9312 234.166 32.3832 234.176C34.8346 234.187 36.8376 232.201 36.848 229.75ZM29.957 229.72C29.9627 228.371 31.0651 227.279 32.4138 227.285C33.7626 227.29 34.855 228.393 34.8492 229.741C34.8434 231.089 33.7422 232.182 32.3929 232.176C31.0441 232.171 29.9512 231.069 29.957 229.72Z" fill="white"/>
<path d="M71.8447 238.265L71.8402 239.325L73.8402 239.334L73.8533 236.274L65.7808 236.239L65.7722 238.239L71.8447 238.265Z" fill="white"/>
</svg>
