<svg width="303" height="291" viewBox="0 0 303 291" fill="none" xmlns="http://www.w3.org/2000/svg">
<path d="M181.836 1.99976C154.52 60.2333 147.384 97.384 147.789 147.077C148.194 196.77 160.656 245.081 184.176 288.132" stroke="white" stroke-width="8"/>
<rect x="-3" y="3" width="98" height="274" rx="13" transform="matrix(-1 0 0 1 98 9)" stroke="white" stroke-width="6"/>
<circle cx="37.2205" cy="37.2205" r="34.2205" transform="matrix(-1 0 0 1 88.8881 31.8687)" stroke="white" stroke-width="6"/>
<circle cx="37.2205" cy="37.2205" r="34.2205" transform="matrix(-1 0 0 1 89 119.994)" stroke="white" stroke-width="6"/>
<path fill-rule="evenodd" clip-rule="evenodd" d="M218.226 174.418C217.311 173.846 216.34 173.446 215.368 172.874C214.396 172.303 213.939 171.988 213.139 171.56V45.3861L213.625 45.0718L214.882 44.1001C215.997 43.2427 217.197 42.2711 218.369 41.3851C218.976 41.0193 219.541 40.588 220.055 40.0991H272.496C272.948 40.4957 273.36 40.9361 273.725 41.4137L274.525 42.1853C274.83 42.5905 275.175 42.9639 275.554 43.2999L276.011 43.8143C276.449 44.3993 276.958 44.9273 277.526 45.3861V54.9313C277.57 55.2633 277.57 55.5996 277.526 55.9316H272.496V60.3898H277.583V89.7684L277.755 89.9113C278.098 90.34 278.526 90.6829 278.841 91.1402C279.155 91.5974 280.012 92.3405 280.498 92.9692C280.808 93.4308 281.183 93.8448 281.613 94.198V121.348L277.583 125.834V154.413C277.627 154.706 277.627 155.005 277.583 155.299H272.496V159.757H277.583V171.56C277.22 171.882 276.828 172.169 276.412 172.417L272.496 175.446H220.055L219.655 175.189C219.198 174.961 218.683 174.703 218.226 174.418ZM259.322 59.4467V54.1025H255.063V59.4467H259.322ZM249.662 59.4467V54.1025H245.375V59.4467H249.662ZM241.089 59.4467V54.1025H236.773V59.4467H241.089ZM231.401 59.4467V54.1025H227.114V59.4467H231.401ZM227.114 118.547V123.92H231.372V118.547H227.114ZM236.773 118.547V123.92H241.06V118.547H236.773ZM245.347 118.547V123.92H249.634V118.547H245.347ZM227.114 111.031V116.403H231.372V111.031H227.114ZM236.773 111.031V116.403H241.06V111.031H236.773ZM245.347 111.031V116.403H249.634V111.031H245.347ZM227.114 103.515V108.83H231.372V103.515H227.114ZM236.773 103.515V108.83H241.06V103.515H236.773ZM245.347 103.515V108.83H249.634V103.515H245.347ZM227.114 93.8551V99.1707H231.372V93.8551H227.114ZM236.773 93.8551V99.1707H241.06V93.8551H236.773ZM245.347 93.8551V99.1707H249.634V93.8551H245.347ZM227.114 84.167V89.5112H231.372V84.167H227.114ZM236.773 84.167V89.5112H241.06V84.167H236.773ZM245.347 84.167V89.5112H249.634V84.167H245.347ZM227.114 74.3932V79.8231H231.372V74.3932H227.114ZM236.773 74.3932V79.8231H241.06V74.3932H236.773ZM245.347 74.3932V79.8231H249.634V74.3932H245.347ZM227.114 63.762V69.1062H231.372V63.762H227.114ZM236.773 63.762V69.1062H241.06V63.762H236.773ZM245.347 63.762V69.1062H249.634V63.762H245.347ZM259.293 113.146V63.762H255.063V113.146H259.293ZM259.293 124.977V115.346H255.063V124.977H259.293ZM227.114 157.271V162.643H231.372V157.271H227.114ZM227.114 149.754V155.127H231.372V149.697L227.114 149.754ZM260.379 148.697V143.267H255.063V148.697H260.379ZM241.06 148.697V143.267H236.773V148.697H241.06ZM231.372 148.697V143.267H227.114V148.697H231.372ZM236.773 149.783V155.156H241.06V149.697L236.773 149.783ZM260.379 157.271V151.869H255.063V157.271H260.379ZM251.806 157.271V151.869H247.433V157.271H251.806ZM236.802 157.271V162.643H241.089V157.271H236.802ZM260.408 164.787V159.385H255.063V164.73L260.408 164.787Z" fill="white"/>
<path d="M246.356 251.383L246.088 251.377L245.859 251.237C245.818 251.213 241.741 248.757 238.559 248.388L238.31 248.359L232.853 244.574L224.491 244.609L217.372 232.477L221.542 232.459L221.537 231.132L208.254 231.189L208.245 229.189L221.528 229.132L221.524 228.251L217.616 228.268L223.644 216.246L225.92 216.236L228.377 212.517L237.14 212.48L240.312 215.487L243.437 215.474L250.01 210.777L263.492 210.719L275.64 221.922L275.806 222.121C275.892 222.257 277.927 225.521 277.947 230.029L277.947 230.029C277.958 232.691 277.265 235.232 275.886 237.582L275.813 237.707L268.048 244.98L267.88 245.106C267.439 245.373 256.961 251.615 246.355 251.383L246.356 251.383ZM241.891 247.168C243.093 247.085 249.959 246.492 256.693 243.339C248.872 244.185 240.672 244.451 236.305 244.535L239.044 246.435C239.981 246.568 240.957 246.84 241.891 247.168L241.891 247.168ZM246.889 242.12C248.237 242.04 249.61 241.946 250.989 241.841L261.555 218.152C259.919 217.794 258.615 217.595 257.867 217.496L246.889 242.12ZM263.533 218.628L253.263 241.653C254.051 241.583 254.835 241.507 255.615 241.428L265.418 219.163C264.769 218.963 264.138 218.785 263.533 218.627L263.533 218.628ZM220.856 234.463L225.634 242.605L233.163 242.573C235.91 242.569 240.043 242.477 244.645 242.243L250.938 228.126L248.609 228.136L245.255 234.358L220.855 234.463L220.856 234.463ZM223.543 232.452L244.06 232.364L246.333 228.147L223.525 228.245L223.543 232.452ZM236.347 214.484L229.456 214.513L228.324 216.226L234.695 216.199L234.704 218.199L224.882 218.241L220.864 226.256L251.831 226.124L255.71 217.423L239.519 217.492L236.347 214.484ZM250.656 212.775L246.898 215.459L257.249 215.416C257.281 215.416 257.312 215.424 257.343 215.428L257.344 215.42C257.627 215.446 262.731 215.932 268.547 218.102L262.716 212.724L250.656 212.775L250.656 212.775ZM275.947 230.04C275.947 230.039 275.947 230.039 275.947 230.04C275.932 226.538 274.492 223.841 274.177 223.294L273.412 222.589C271.42 221.421 269.325 220.507 267.325 219.795L257.912 241.179C264.901 240.359 271.072 239.098 273.432 237.199L274.234 236.447C275.381 234.446 275.957 232.292 275.948 230.039L275.947 230.04ZM266.762 243.446L269.178 241.183C267.072 241.772 264.607 242.258 261.972 242.661C256.205 246.539 249.56 248.124 245.515 248.761C246.026 249.028 246.423 249.251 246.66 249.388C256.106 249.493 265.75 244.035 266.761 243.446L266.762 243.446Z" fill="white"/>
<path d="M225.554 222.383L225.563 224.383L240.807 224.318L240.799 222.318L225.554 222.383Z" fill="white"/>
<path d="M242.344 222.311L242.353 224.311L246.576 224.293L246.567 222.293L242.344 222.311Z" fill="white"/>
<path d="M266.152 229.75C266.141 227.298 268.127 225.295 270.579 225.285C273.03 225.274 275.034 227.26 275.044 229.711C275.055 232.163 273.069 234.166 270.617 234.176C268.165 234.187 266.162 232.201 266.152 229.75ZM273.043 229.72C273.037 228.371 271.935 227.279 270.586 227.285C269.237 227.29 268.145 228.393 268.151 229.741C268.157 231.089 269.258 232.182 270.607 232.176C271.956 232.171 273.049 231.069 273.043 229.72Z" fill="white"/>
<path d="M231.155 238.265L231.16 239.325L229.16 239.334L229.147 236.274L237.219 236.239L237.228 238.239L231.155 238.265Z" fill="white"/>
</svg>
