<svg width="240" height="280" viewBox="0 0 240 280" fill="none" xmlns="http://www.w3.org/2000/svg">
<path d="M238.4 13.7926C237.902 12.9064 237.054 12.268 236.065 12.0314C234.023 11.8841 232.001 12.5136 230.4 13.7926L230.016 14.0158C226.815 15.9354 223.617 17.7278 220.416 19.3596C216.799 21.2792 213.152 23.1029 209.472 24.9265L206.88 26.239C201.663 25.0873 196.32 24.1587 191.137 23.2636H190.657C189.954 16.8642 189.282 10.4648 188.576 4.06247V4.0647C188.63 2.5803 187.746 1.22316 186.369 0.671846C185.404 0.4464 184.389 0.618274 183.552 1.15175C161.636 12.4106 141.741 27.2232 124.672 44.9912C123.596 46.0291 122.917 47.4108 122.752 48.8952V56.0003V60.161C122.752 61.536 122.752 63.3619 122.56 65.1521C122.56 67.3284 122.337 69.5048 122.337 71.5515C122.018 81.1521 121.569 91.5515 120.928 105.088C120.395 116.373 119.788 127.668 119.105 138.976C118.402 150.4 117.665 161.793 116.864 172.865C116.449 178.561 116 184.258 115.551 189.985C114.638 189.633 113.696 189.354 112.736 189.153C109.739 188.642 106.676 188.642 103.68 189.153C103.339 189.208 103.078 189.483 103.04 189.825V190.465C100.895 190.242 100.319 190.465 99.8389 190.688C97.3858 190.177 94.3768 189.729 90.8143 189.345H90.1112C80.2878 188.354 69.8232 188.224 69.5666 188.224C69.3099 188.224 59.0066 188.224 49.1826 189.345H48.4795C44.9281 189.729 41.888 190.177 39.4235 190.688C39.1355 190.688 38.5284 190.24 36.4145 190.465V189.825C36.3766 189.483 36.1154 189.208 35.7761 189.153C32.7895 188.642 29.7384 188.642 26.7516 189.153C24.0105 189.751 21.3989 190.833 19.0396 192.354C18.8208 192.494 18.6891 192.733 18.6869 192.992V193.407H18.3989C17.5351 193.63 16.928 193.822 16.4793 193.983V193.985C15.5641 194.262 14.8096 194.914 14.3989 195.778C11.9235 200.791 9.78511 205.965 7.99951 211.265C5.51288 218.787 3.60889 226.49 2.30306 234.305C0.175799 244.755 0.0351689 255.514 1.88788 266.017C2.43252 270.753 5.05976 275.001 9.05531 277.601C9.89233 278.079 10.8187 278.385 11.7763 278.496L17.9214 279.456H18.6246C20.3947 279.445 22.0263 278.494 22.9125 276.961C25.513 272.349 27.7607 267.545 29.6314 262.592C30.6559 260.096 31.647 257.632 32.8323 255.007V255.01C33.5377 253.003 34.7229 251.202 36.2877 249.76C38.31 248.364 40.7475 247.699 43.2008 247.873C44.7343 248.46 46.357 248.775 47.9999 248.8H91.5199C93.1694 248.802 94.8056 248.51 96.3525 247.936C98.7609 247.831 101.136 248.53 103.104 249.92C104.687 251.376 105.904 253.186 106.656 255.202C107.776 257.666 108.801 260.161 109.857 262.657H109.854C111.729 267.583 113.966 272.364 116.544 276.96C117.428 278.494 119.06 279.445 120.832 279.456C121.064 279.489 121.303 279.489 121.535 279.456L127.712 278.527V278.53C128.661 278.398 129.573 278.083 130.399 277.601C132.41 276.445 134.071 274.764 135.201 272.737H137.442C145.377 273.025 155.201 273.09 164.77 273.09C183.779 273.09 201.794 272.737 202.018 272.737C203.457 272.737 215.585 273.025 220.259 267.585H220.866H220.864C221.743 267.603 222.598 267.295 223.263 266.722C224.257 265.695 224.788 264.309 224.736 262.88V257.505C225.27 240.779 225.857 224.023 226.495 207.233C229.12 136.095 232.895 77.5354 238.719 22.9125C238.719 22.4326 238.719 21.9215 238.942 21.3768L238.944 21.3746C239.623 18.859 239.434 16.1857 238.4 13.7926ZM209.087 136.798C209.087 135.917 209.804 135.2 210.688 135.2C211.112 135.2 211.52 135.367 211.82 135.669C212.121 135.968 212.288 136.374 212.288 136.798V146.079C212.288 146.504 212.121 146.91 211.82 147.211C211.521 147.51 211.112 147.68 210.688 147.68C209.804 147.68 209.087 146.963 209.087 146.079V136.798ZM209.087 155.167C209.087 154.283 209.804 153.566 210.688 153.566C211.565 153.584 212.27 154.292 212.288 155.167V161.727C212.271 162.604 211.565 163.309 210.688 163.327C209.804 163.327 209.087 162.611 209.087 161.727V155.167ZM209.087 231.773V231.775C209.087 230.891 209.804 230.174 210.688 230.174C211.112 230.174 211.52 230.342 211.82 230.643C212.121 230.942 212.288 231.351 212.288 231.775V243.103C212.288 243.527 212.121 243.933 211.82 244.232C211.521 244.534 211.112 244.701 210.688 244.701C209.804 244.701 209.087 243.985 209.087 243.103V231.773ZM120.002 173.087C120.801 161.982 121.537 150.687 122.209 139.167C122.881 127.647 123.522 116.542 124.033 105.248C124.705 91.712 125.154 81.344 125.473 71.5851C125.473 69.4735 125.473 67.3619 125.696 65.1857C125.919 63.0094 125.696 61.7929 125.888 60.0987C126.08 58.4022 125.888 57.2505 125.888 55.842V48.994L125.89 48.9918C126.017 48.2351 126.388 47.5386 126.946 47.0096C143.85 29.521 163.529 14.945 185.186 3.8736H185.443C185.456 4.0544 185.456 4.2352 185.443 4.41601C187.938 26.8154 190.168 49.0143 192.13 71.0103L201.731 225.153C202.115 236.993 202.403 249.473 202.434 261.825V262.432L202.436 262.435C202.554 263.432 202.376 264.446 201.923 265.345C201.347 266.113 200.068 266.336 197.762 266.144H197.57C177.987 264.098 158.403 261.602 138.724 258.401C139.251 250.363 138.769 242.287 137.282 234.37C135.95 226.557 134.035 218.856 131.555 211.33C129.776 206.028 127.637 200.852 125.155 195.841C124.716 194.982 123.959 194.328 123.044 194.017L121.124 193.473H120.868V193.057C120.865 192.799 120.734 192.557 120.515 192.417C120.162 192.194 119.555 191.81 118.756 191.361C119.171 185.28 119.651 179.203 120.004 173.088L120.002 173.087ZM46.4017 193.375C46.5937 193.087 47.2008 192.703 48.866 192.511H49.3772C58.9778 191.52 69.4086 191.391 69.6006 191.391C69.7926 191.391 80.0338 191.391 89.7612 192.511H90.2411C91.9041 192.703 92.4822 193.087 92.7054 193.375C92.8951 193.991 92.8951 194.649 92.7054 195.263L92.1942 197.759L91.4263 201.598L90.6272 205.214C90.2433 207.007 89.8282 208.799 89.4755 210.589C88.9308 213.277 88.4509 215.58 86.2746 216.638V216.641C85.0491 217.181 83.7054 217.402 82.3706 217.279H56.77C55.4284 217.453 54.0646 217.288 52.8013 216.799C50.8168 215.808 50.2722 213.598 49.6003 210.75C49.2477 208.991 48.8637 207.261 48.4798 205.533L47.6807 201.757C47.2321 199.645 46.8169 197.533 46.4017 195.357V195.359C46.2097 194.701 46.2655 193.996 46.5624 193.375L46.4017 193.375ZM35.4577 226.591L34.7546 227.583V227.585C29.0026 236.118 24.2546 245.288 20.6094 254.913C18.2724 260.609 16.3862 266.56 14.594 272.321L14.4021 272.962C14.0829 273.953 13.5382 275.138 12.7391 275.33V275.328C12.527 275.377 12.3083 275.377 12.0984 275.328C11.5784 275.254 11.0806 275.08 10.6275 274.817C7.49799 272.661 5.43999 269.272 4.96228 265.504C3.18994 255.391 3.33057 245.036 5.37746 234.975C6.67432 227.377 8.54488 219.891 10.9779 212.576C12.6877 207.321 14.8284 202.216 17.3773 197.312C17.9532 197.096 18.5403 196.913 19.1385 196.768C24.518 195.453 29.9825 194.502 35.4911 193.919H36.5469C36.9822 193.89 37.4219 193.89 37.8572 193.919H38.0179C38.9688 194.761 39.6295 195.881 39.9063 197.12C40.3215 198.591 40.6094 200.064 40.9309 201.536L41.1228 202.623L42.6585 209.982V209.984C43.413 212.667 43.2099 215.531 42.0827 218.08C41.2188 219.167 40.3237 220.225 39.4264 221.281L38.3394 222.56C37.5068 223.969 36.451 225.248 35.4577 226.591ZM48.0023 245.601C46.5938 245.598 45.1965 245.348 43.875 244.864C41.6942 244.02 39.8192 242.536 38.4978 240.607C36.1987 237.295 35.8081 233.018 37.4732 229.344L38.0179 228.576C38.9464 227.328 39.9375 226.143 40.9308 224.96C42.9464 223.375 45.4375 222.518 48.0023 222.529C51.1675 222.362 54.2611 223.502 56.5606 225.683C58.8596 227.864 60.1632 230.895 60.1632 234.065C60.1632 237.234 58.8597 240.264 56.5606 242.444C54.2615 244.625 51.1677 245.768 48.0023 245.601ZM72.2589 241.953L67.299 241.951C66.4151 241.951 65.6986 241.237 65.6986 240.353C65.6986 239.469 66.4151 238.752 67.299 238.752H72.2589C73.1428 238.752 73.8571 239.469 73.8571 240.353C73.8571 241.237 73.1428 241.951 72.2589 241.951V241.953ZM95.6183 244.866V244.864C94.3058 245.348 92.9196 245.598 91.5223 245.601C88.4598 245.596 85.5246 244.375 83.3617 242.208C81.1787 240.056 79.9577 237.114 79.9711 234.049C79.9778 230.989 81.1988 228.061 83.3662 225.9C85.5314 223.741 88.4644 222.529 91.5222 222.529C94.0825 222.511 96.5735 223.357 98.5936 224.929C99.5847 226.112 100.578 227.328 101.538 228.61L102.018 229.281V229.279C102.719 230.773 103.08 232.4 103.074 234.049C103.056 236.382 102.335 238.657 101.004 240.574C99.674 242.491 97.7967 243.965 95.6182 244.799L95.6183 244.866ZM128.866 274.915V274.913C128.382 275.188 127.851 275.371 127.299 275.456H126.788C125.924 275.232 125.38 274.016 125.092 273.056V272.703L124.739 271.583C124.386 270.4 124.002 269.215 123.619 268.031C122.851 265.536 122.018 263.007 121.09 260.512C120.514 258.784 119.873 257.087 119.17 255.391L119.009 255.007C117.505 251.391 115.808 247.679 114.177 244.032L113.603 242.913L112.674 240.898C112.259 240.065 111.811 239.297 111.362 238.498L110.786 237.442C110.179 236.322 109.634 235.17 108.994 234.241C108.353 233.313 107.681 232.226 107.009 231.041C106.337 229.858 105.601 228.768 104.833 227.84V227.648L104.002 226.625C103.011 225.25 101.922 223.938 100.802 222.69L99.6185 221.25C98.7547 220.259 97.8908 219.235 97.0582 218.049C95.9221 215.478 95.7301 212.587 96.5136 209.889C97.0047 207.393 97.5158 204.898 98.0493 202.4L98.306 201.153C98.5939 199.744 98.8819 198.304 99.2658 196.896C99.5426 195.657 100.203 194.536 101.154 193.697H103.94C108.612 194.273 112.228 194.849 114.915 195.36L118.116 196.032C118.949 196.224 119.652 196.385 120.165 196.543L121.828 197.054L121.826 197.057C121.929 197.081 122.011 197.153 122.052 197.249C124.527 202.119 126.665 207.155 128.451 212.32C130.875 219.637 132.748 227.123 134.051 234.722C135.101 240.487 135.656 246.331 135.714 252.193C135.714 254.081 135.714 255.905 135.491 257.697C135.491 258.784 135.491 259.842 135.172 260.898C134.853 261.954 134.757 263.842 134.469 265.251L134.467 265.248C134.214 266.585 133.828 267.893 133.315 269.152C132.855 270.297 132.243 271.376 131.491 272.353C130.799 273.358 129.906 274.208 128.866 274.849L128.866 274.915ZM202.112 269.732C201.697 269.732 161.183 270.531 137.603 269.732H136.708L136.706 269.728C137.103 268.598 137.423 267.444 137.666 266.273C137.954 264.802 138.211 263.328 138.403 261.793C157.954 264.994 177.731 267.393 197.414 269.344C197.979 269.378 198.546 269.378 199.111 269.344C201.119 269.507 203.088 268.712 204.421 267.201C205.144 266.145 205.535 264.895 205.541 263.616L206.052 263.777L209.733 264.898C211.91 265.601 214.117 266.241 216.325 266.817C211.896 268.92 207.017 269.9 202.117 269.663L202.112 269.732ZM235.969 21.1209C235.969 21.6656 235.969 22.2414 235.746 22.7839C229.987 77.4713 226.145 136.098 223.489 207.292C222.849 224.06 222.262 240.828 221.73 257.596V263.1L221.728 263.103C221.748 263.6 221.614 264.091 221.344 264.509H220.704C218.976 264.156 217.248 263.71 215.521 263.23C216.896 262.942 218.722 261.951 218.722 258.558C218.722 252.158 218.722 245.951 218.945 239.645C218.945 228.636 219.168 217.245 219.521 206.078C219.873 194.91 220.257 183.453 220.704 172.158C220.992 164.382 221.344 156.574 221.664 148.799L222.4 134.462C222.849 124.413 223.264 114.354 223.648 104.285L224.032 95.9973C224.385 87.6133 224.8 78.9413 224.8 70.3968C224.8 65.1177 225.056 59.4527 224.8 53.9167C224.69 50.3631 224.239 46.8276 223.456 43.3567C222.688 39.4259 221.108 35.6985 218.818 32.4128C216.983 30.1114 214.512 28.3971 211.712 27.4864C215.233 25.7275 218.752 23.9663 222.208 22.1114C225.663 20.2565 228.607 18.6561 231.808 16.703L232.192 16.4463C233.025 15.9351 234.753 14.9106 235.393 15.0713C235.393 15.0713 235.585 15.0713 235.746 15.3905H235.744C236.44 17.2231 236.518 19.2343 235.969 21.1179V21.1209Z" fill="black"/>
</svg>
